<?xml version="1.0" encoding="UTF-8" standalone="no"?>
<svg
   version="1.0"
   width="319"
   height="319"
   viewBox="0 0 239.25 239.25"
   preserveAspectRatio="xMidYMid"
   id="svg123"
   sodipodi:docname="NIT Silchar.svg"
   inkscape:version="1.2.2 (732a01da63, 2022-12-09)"
   xmlns:inkscape="http://www.inkscape.org/namespaces/inkscape"
   xmlns:sodipodi="http://sodipodi.sourceforge.net/DTD/sodipodi-0.dtd"
   xmlns="http://www.w3.org/2000/svg"
   xmlns:svg="http://www.w3.org/2000/svg">
  <defs
     id="defs127" />
  <sodipodi:namedview
     id="namedview125"
     pagecolor="#ffffff"
     bordercolor="#666666"
     borderopacity="1.0"
     inkscape:pageshadow="2"
     inkscape:pageopacity="0.0"
     inkscape:pagecheckerboard="0"
     inkscape:document-units="px"
     showgrid="false"
     units="px"
     inkscape:showpageshadow="false"
     inkscape:zoom="0.90028971"
     inkscape:cx="465.40574"
     inkscape:cy="209.93242"
     inkscape:window-width="1366"
     inkscape:window-height="705"
     inkscape:window-x="-8"
     inkscape:window-y="-8"
     inkscape:window-maximized="1"
     inkscape:current-layer="svg123"
     inkscape:deskcolor="#d1d1d1" />
  <metadata
     id="metadata9">
Created by potrace 1.10, written by Peter Selinger 2001-2011
</metadata>
  <g
     transform="matrix(0.11421227,0,0,-0.11266662,-14.211441,999.37161)"
     fill="#000000"
     stroke="none"
     id="g121">
    <path
       d="m 1025.4785,8827.5619 c -14.8889,-6.9048 -18.9065,-12.8573 -18.6702,-27.8575 0,-11.1907 0.9453,-13.8097 7.799,-20.9527 10.1622,-10.4764 8.7443,-15.7145 -4.0177,-15.7145 -8.7443,0 -15.59786,-1.1905 -61.91878,-10.9525 -19.8519,-4.0477 -40.17647,-9.0478 -58.13769,-14.286 -16.307,-4.5238 -21.03364,-4.2858 -34.97724,2.381 -20.56088,9.762 -41.35809,14.2859 -68.53626,15.2383 -30.25049,0.9524 -40.88542,-2.1428 -55.06543,-15.4764 -8.03529,-7.8573 -8.98061,-9.762 -8.98061,-20.4764 0,-10.9526 0.70899,-12.3812 11.34393,-22.1433 l 11.34393,-10.4763 -16.07057,-7.381 c -8.74428,-4.2857 -17.25223,-7.6192 -18.90655,-7.6192 -1.418,0 -10.87127,3.8096 -20.56088,8.8096 -9.92594,4.762 -25.99651,11.905 -35.68612,15.9527 l -17.96123,7.143 -17.48856,-8.5716 c -19.61555,-9.7621 -29.54158,-16.6669 -29.54158,-20.9527 0,-1.6667 4.01764,-4.5239 8.9807,-6.6668 8.74428,-3.5715 9.45328,-3.5715 18.43389,1.6666 19.85188,11.9051 24.81485,13.3337 36.39512,10.2384 5.9083,-1.6667 13.47092,-4.2857 17.0159,-6.1906 3.54498,-1.6667 8.50795,-3.0953 10.87127,-3.0953 5.67196,0 10.16227,-5.2382 8.03528,-8.8095 -0.94533,-1.6668 -10.16227,-7.3812 -20.56088,-12.8575 -10.16227,-5.2382 -22.45153,-12.3811 -26.94184,-15.4764 -4.72663,-3.0952 -9.21694,-5.7143 -9.92594,-5.7143 -2.12698,0 -66.88203,-43.5721 -70.66334,-47.6198 -3.07231,-3.3334 -20.79721,-16.1907 -25.52384,-18.8098 -5.43564,-2.8571 -8.74429,-2.381 -31.19582,5.7144 -12.99825,4.762 -33.3228,10.2383 -43.95774,11.905 -12.99835,2.1429 -22.45162,-2.381 -39.94019,-19.048 -13.47092,-13.0954 -13.94358,-13.8097 -9.45327,-16.905 10.16227,-7.6191 14.65258,-6.6667 27.4145,4.762 6.6173,5.9525 14.889,11.6669 17.96132,12.3812 10.87127,2.8571 59.79198,-7.3811 61.4463,-12.6193 0.709,-1.6667 -2.12699,-4.5239 -5.67197,-6.4286 -5.67196,-2.8572 -10.3986,-3.0954 -25.76018,-1.1905 -26.46917,3.3334 -35.68612,1.4285 -50.10246,-10.4763 -6.61729,-5.4764 -12.05292,-11.4289 -12.05292,-12.8573 -0.23634,-1.6667 2.83598,-4.524 6.61729,-6.4288 6.61729,-3.5715 7.08996,-3.3333 18.19756,6.9048 10.87136,10.2384 12.05302,10.7146 25.9966,10.7146 7.79896,0 14.88891,-0.7143 15.59791,-1.4286 0.709,-0.7143 -15.59791,-18.3336 -36.15879,-39.2863 -20.56097,-20.9527 -37.57686,-39.5244 -37.57686,-41.4291 0,-8.0954 12.99825,-14.286 15.5979,-7.143 2.12699,5.2381 6.38096,4.2857 12.99826,-2.6191 3.07231,-3.3334 12.28935,-11.4288 20.08831,-17.8574 l 14.65257,-11.6669 h 21.26988 c 12.05293,0 22.2152,-0.9523 22.9242,-2.3809 0.94532,-1.4287 0,-6.9048 -1.89066,-12.6193 -9.68961,-28.0955 -8.74428,-36.4291 3.54498,-34.5242 4.49031,0.7142 5.9083,3.3333 9.68961,19.7621 7.56262,31.9053 11.81659,47.6197 13.70725,49.5245 0.94533,1.1905 7.32629,-3.8095 14.17992,-11.1906 10.87126,-11.6668 13.70725,-13.3336 21.5062,-13.3336 7.32629,0 8.98061,0.9524 8.98061,4.5239 0,2.6191 -1.89065,6.1906 -4.01764,7.8573 -2.36332,1.6667 -14.88891,15.0002 -27.88717,29.2861 -12.76192,14.5241 -31.19581,34.2862 -40.64909,44.2864 -9.45328,10.0001 -17.25223,19.7622 -17.25223,21.9051 0,4.2857 19.37922,20.7145 24.57852,20.7145 1.89066,0 4.96297,-1.9048 6.6173,-4.2858 3.30864,-4.7619 20.08821,-24.7622 31.19581,-36.9052 3.54498,-4.2858 10.39861,-12.3812 15.12524,-18.3336 4.72664,-5.9525 9.68961,-11.6669 11.1076,-13.0954 1.418,-1.1906 5.90839,-6.9049 10.16237,-12.3812 7.32629,-9.2858 8.98061,-10.2382 18.43389,-10.2382 5.67197,0 10.3986,1.1905 10.3986,2.6191 0,1.1905 -4.25397,7.3811 -9.45327,13.5716 -47.03015,56.1913 -75.62631,91.906 -75.62631,94.7632 0,2.381 12.05293,12.1431 36.63145,29.5243 9.21694,6.4286 17.96132,12.8572 19.61564,14.524 2.59965,2.1429 4.72664,1.4286 9.45328,-3.8095 l 6.38096,-6.4288 -9.21695,-7.3809 c -23.39695,-19.048 -23.86961,-19.7624 -21.50629,-26.9053 1.65432,-4.762 6.38096,-9.0477 14.889,-13.5716 10.3986,-5.7144 12.28926,-7.8573 12.28926,-13.3335 0,-15.0003 16.07057,-26.429 36.63145,-26.429 21.97887,0 38.99477,12.3812 48.44804,35.7149 4.01765,9.5239 7.32629,9.0478 12.5256,-2.381 4.4903,-9.7621 13.94358,-16.6669 22.92419,-16.6669 4.01765,0 4.72664,0.9524 3.30865,5.4763 -0.709,2.857 -3.07232,6.9048 -4.72664,9.0477 -1.89065,1.9047 -3.30865,4.2857 -3.30865,5.2381 0,0.7143 -2.83598,5.4763 -6.14463,10.4763 -3.30864,5.0002 -7.08995,11.1907 -8.27161,13.8098 -1.41799,2.6191 -3.54498,6.9048 -5.19931,9.5239 -4.25397,7.3811 -25.76018,43.334 -31.66847,53.096 -8.03529,13.5716 -7.08996,17.3813 6.38096,24.2861 11.81659,5.7143 12.05293,5.7143 16.3069,1.1906 2.36332,-2.6192 8.98061,-13.3336 14.65258,-23.81 5.43563,-10.4763 13.70725,-25.4765 17.96123,-33.3337 4.01764,-7.8573 10.3986,-19.5241 13.47101,-26.1909 8.74428,-17.1432 15.59791,-24.7623 24.57852,-26.429 9.45328,-1.9048 9.92594,1.1905 1.41799,17.1431 -3.54498,6.4287 -13.23459,25.0004 -21.74254,41.4292 -8.27171,16.4289 -19.37931,37.3815 -24.10595,46.9054 -8.27161,15.7145 -8.74428,17.3813 -4.96297,20.4765 6.6173,5.7143 24.34229,13.8097 27.4146,12.6191 2.83598,-0.9522 8.27162,-11.6667 33.08647,-64.5246 20.32455,-43.5721 22.9242,-48.334 28.8325,-50.9531 5.90829,-2.8571 14.88891,-3.5714 14.88891,-1.1905 0,0.7143 -2.59965,6.9048 -5.67197,13.5716 -3.30865,6.9048 -8.74428,18.8099 -12.05293,26.6671 -3.54498,7.8571 -8.27162,18.5717 -10.63493,23.8098 -2.36332,5.2382 -7.32629,15.9527 -10.63494,23.81 -3.54498,7.8571 -8.50795,18.8097 -11.1076,24.524 -5.1993,10.9527 -4.49031,16.4288 2.12699,18.5717 6.38096,1.9048 21.97886,8.0954 31.43214,12.1431 7.79896,3.3333 8.27162,3.3333 11.8166,-1.9048 3.30865,-5.0001 11.81659,-25.4765 11.81659,-28.5719 0,-0.7143 -4.25397,-3.3333 -9.45327,-5.7143 -11.34393,-5.0001 -12.28926,-10.7145 -2.83599,-17.3812 7.56263,-5.2382 28.1235,-14.7621 32.37748,-14.7621 4.72664,0 11.34393,9.0477 9.92594,13.5716 -1.65432,5 -6.61729,18.3336 -13.70725,36.429 -2.83599,7.143 -5.67197,16.667 -6.14463,20.9527 -1.18166,6.9049 -0.47267,7.8573 7.56262,11.4288 10.3986,4.2858 22.45155,3.5715 24.81487,-1.4286 0.94542,-1.9048 3.54507,-10.0002 5.90839,-17.8574 2.12699,-7.8572 5.43564,-18.0955 7.08996,-22.6193 1.65432,-4.524 4.96297,-14.7622 7.08996,-22.6194 2.36332,-7.8573 5.67196,-17.8574 7.32629,-22.1432 1.89065,-4.2857 3.30864,-9.5239 3.30864,-11.905 0,-7.1429 8.50795,-18.5716 16.30691,-21.905 4.01766,-1.6667 8.03526,-2.6191 8.50796,-1.9048 0.709,0.4761 -1.6543,10.0001 -4.7267,21.1907 -9.45323,32.1434 -13.47087,45.4769 -16.54319,55.7151 -3.07231,9.7621 -7.79895,25.4767 -12.99825,43.334 -3.78131,12.3811 -1.18166,16.6669 11.58026,18.8098 4.72664,0.7143 13.94358,2.8572 20.32458,4.5239 16.5432,4.5238 46.55732,10.7144 51.04762,10.7144 4.2539,0 7.7989,-10.2382 11.3439,-32.8576 1.1817,-8.0954 3.0723,-15.9526 3.7813,-17.1431 3.07226,-4.762 -1.6543,-11.6668 -13.7072,-20.0003 -14.41626,-10.0001 -25.05116,-11.1906 -32.37746,-3.3333 -11.58026,12.6192 -0.709,27.6194 23.1605,31.667 11.34386,1.9049 12.28926,3.8097 4.01766,11.9049 -6.38096,6.6668 -10.87126,7.143 -22.68786,3.0954 -9.68956,-3.0954 -16.54316,-9.7621 -22.21516,-20.7146 -3.7813,-7.3811 -3.7813,-8.5715 -0.2363,-17.8575 7.5626,-19.0478 19.14276,-27.6194 37.34036,-27.6194 8.74426,0 14.17986,1.4286 18.43386,4.7621 9.2169,7.1429 13.70716,5.9524 16.30686,-4.0478 1.418,-5 2.5996,-12.143 2.5996,-15.7145 0,-8.3334 3.7814,-15.9525 10.3986,-21.1907 11.344,-9.524 13.7073,-1.1905 7.5627,27.1432 -1.8907,8.3335 -4.0177,20.9527 -4.963,28.3338 -1.1817,12.143 -0.9453,14.0478 4.7266,20.7145 6.6173,7.8573 20.0883,13.0955 26.7056,10.7145 6.1447,-2.3811 9.6896,-8.3335 9.926,-16.1908 0,-8.8096 -7.799,-31.1909 -13.9436,-39.5243 -4.7266,-6.4287 -4.7266,-6.4287 0.709,-11.4287 2.836,-2.6192 7.0899,-5.0001 9.2169,-5.0001 7.09,0 18.1976,28.5718 18.1976,46.9054 0,11.1906 -6.6173,28.5719 -13.2346,34.2862 -11.1076,9.5239 -30.9596,9.762 -41.3582,0.7143 -3.0723,-2.8572 -4.2539,-2.8572 -6.3809,-0.4762 -3.3087,4.2858 -8.7443,34.7624 -6.6173,36.9052 0.9453,0.9524 8.2716,2.3811 16.3069,3.3335 8.0353,0.7143 24.5786,2.8572 36.3952,4.5238 16.7795,2.3811 22.6878,2.3811 25.2875,0.2381 2.3633,-1.9047 3.7813,-10.7144 4.7266,-28.3337 3.0724,-50.715 8.7443,-96.6681 12.762,-101.1919 4.9629,-5.7144 13.7072,-4.5238 12.9982,1.9048 -0.2363,2.619 -1.6543,25.2384 -3.0723,50.0006 -1.1817,25.0005 -3.0723,52.858 -3.7813,62.3819 l -1.6543,16.905 10.1622,2.143 c 18.9066,3.8095 18.1976,17.3811 -0.9453,17.3811 -11.5803,0 -12.5256,0.7143 -21.5062,14.0478 -10.6349,15.9526 -26.7055,30.7148 -40.4128,37.1435 -14.889,7.1429 -17.9613,7.1429 -30.4869,1.4285 z m 40.8856,-21.6669 c 10.1622,-7.3812 24.1058,-24.7624 24.1058,-29.7624 0,-3.8095 -10.3986,-5.7143 -33.7955,-6.1906 -20.7973,-0.4761 -25.2876,1.9048 -29.5415,15.9527 -2.836,9.5239 -0.4727,19.286 5.9083,24.286 7.3262,5.4763 22.6879,3.5715 33.3229,-4.2857 z m -228.29677,-69.5249 c 6.14463,-1.9048 11.81659,-4.0476 12.76192,-4.7619 1.89066,-2.1429 -13.23459,-11.4288 -18.43389,-11.4288 -2.36332,0 -7.56262,-1.4286 -11.81659,-3.3333 -4.25398,-1.6668 -16.77957,-6.6668 -27.88717,-10.9526 -11.1076,-4.0476 -22.45154,-8.5716 -25.28752,-10.0001 -4.25397,-2.1429 -7.08996,-1.6667 -13.70725,1.9048 -23.86962,12.8574 -8.27171,40.7148 24.81485,43.8101 16.07057,1.4286 44.90307,-1.1905 59.55565,-5.2382 z M 661.29095,8609.7017 c 3.30865,-4.5239 6.14463,-8.8097 6.14463,-9.7621 0,-0.7142 2.83599,-5.7144 6.38097,-11.4288 18.90655,-29.2861 19.61555,-31.1908 15.83423,-42.3815 -7.32628,-21.1907 -21.03354,-38.3338 -33.55913,-42.1434 -12.28926,-3.8096 -12.99825,-3.5715 -18.90655,1.9048 -8.50795,8.0953 -6.6173,15.4764 6.14463,25.0003 6.14463,4.524 13.47092,9.0477 16.54323,9.7621 7.56262,2.1429 6.38096,6.4286 -2.83598,11.4286 l -8.27162,4.524 -8.98061,-7.1429 c -14.65258,-11.1908 -20.56088,-13.5717 -26.46918,-10.4764 -9.21694,5.2382 -5.9083,11.905 11.8166,23.0956 8.27162,5.4762 13.94358,10.7144 13.94358,13.3335 0,2.1429 -3.30864,9.0477 -7.32629,15.0002 -8.03528,12.143 -8.27161,11.6668 5.67197,20.7145 12.99825,8.3336 16.54323,8.0954 23.86952,-1.4285 z m -149.5982,-140.0021 c 11.58027,-12.143 21.03354,-24.0479 21.03354,-26.4289 0,-2.1429 -2.59965,-8.3334 -5.9083,-13.3335 -6.14463,-10.0001 -18.67022,-16.1907 -27.4145,-13.3335 -5.1993,1.6667 -41.83075,34.5243 -45.37573,40.4768 -2.59965,4.7619 25.05118,34.5242 32.14114,34.5242 2.59965,0 12.99826,-8.8097 25.52385,-21.9051 z"
       id="path11"
       style="stroke-width:1" />
    <path
       d="m 1378.3224,8800.6568 c -4.963,-2.6191 -8.9806,-5.4764 -8.9806,-6.6667 0,-1.1906 3.7813,-5.9526 8.2716,-10.7145 l 8.0353,-8.8097 9.6896,5.4763 c 10.8712,6.1906 11.5802,9.0477 4.254,18.8098 -5.9083,8.0954 -8.9807,8.3335 -21.2699,1.9048 z"
       id="path13"
       style="stroke-width:1" />
    <path
       d="m 1247.3944,8766.8467 c -2.127,-9.2857 0.4727,-10.9524 17.4886,-10.9524 22.2152,0 22.6878,-0.7144 20.5608,-22.1433 l -1.6543,-18.0954 -13.2346,-0.7143 -13.4709,-0.7143 -0.709,-9.2859 c -0.9453,-11.4288 3.7813,-23.5718 23.1605,-60.9532 2.3634,-4.5239 6.6173,-13.5717 9.4533,-19.7622 5.672,-12.3811 9.926,-15.7146 15.1253,-11.4287 2.8359,2.3809 0.709,7.8571 -11.8166,32.8576 -8.2716,16.4288 -15.1253,30.2386 -15.1253,30.7146 0,2.143 18.1976,17.6194 21.0336,17.6194 1.6543,0 6.1446,-2.6191 9.9259,-5.9524 8.508,-6.9049 21.5062,-10.9527 30.4869,-9.286 11.1076,2.3811 11.1076,0 -0.2363,-50.9531 -1.6544,-8.0952 -1.418,-11.4287 1.6543,-15.9525 4.963,-7.6192 12.2893,-7.8573 13.7073,-0.4762 0.9453,4.762 4.2539,21.4288 12.2892,58.8103 1.6543,8.5715 4.7267,22.6194 6.8536,31.429 1.8907,8.8097 3.545,18.8098 3.545,22.1433 0,3.3333 2.127,8.0952 4.4903,10.4763 4.7267,4.7619 3.545,5 41.5945,-4.5239 14.6525,-3.5715 16.5432,-4.7621 17.2522,-10.0002 0.4726,-3.0952 -1.1817,-11.1906 -3.545,-17.6192 l -4.4903,-11.6669 h -15.1252 c -14.4163,0 -15.3616,-0.2382 -16.0706,-5.7143 -0.9453,-5.7145 1.8906,-18.8099 7.7989,-37.1435 1.6544,-5.2382 5.1993,-16.4288 7.799,-25.0003 9.9259,-32.1433 16.5432,-41.1911 23.3969,-31.9052 2.5996,3.5714 2.3633,5.4763 -1.1817,11.4287 -2.3633,4.0477 -4.963,9.524 -5.672,12.143 -0.9453,2.6191 -3.7813,10.7144 -6.3809,17.8574 -6.1447,15.9527 -6.1447,18.8099 -0.709,20.7146 2.127,0.7144 7.5626,4.0477 11.5802,7.143 6.1447,4.5238 8.7443,5.2381 12.5256,3.0953 2.5997,-1.4286 4.7267,-3.3334 4.7267,-4.2858 0,-2.8572 14.1799,-10.0002 20.0882,-10.0002 6.8536,0 9.4533,-3.3333 13.7073,-18.0954 8.2716,-28.0957 19.6156,-38.572 43.0124,-40.0006 7.799,-0.2381 14.4163,-1.9048 14.6526,-3.0953 0.4727,-1.4287 -1.8906,-8.3335 -5.1993,-15.4765 -5.672,-12.381 -5.9083,-13.3334 -2.3633,-21.6669 1.8906,-4.762 4.7266,-8.8096 5.9083,-8.8096 1.418,0 7.3263,10.4762 13.2346,23.3336 27.4145,58.8104 48.6844,100.4777 51.0477,100.4777 4.7266,0 27.8872,-11.9049 27.8872,-14.286 0,-1.4286 -4.963,-12.143 -11.1077,-24.0479 -13.9435,-26.4291 -30.7231,-58.5722 -39.4674,-75.2392 -6.1446,-11.905 -6.8536,-21.905 -2.127,-30.0004 1.8907,-3.0953 9.4533,5.0001 15.1253,15.9526 4.7266,9.2858 13.4709,25.0003 25.0511,45.4769 2.836,5.238 6.8537,12.8573 8.7444,16.6668 1.8907,4.0477 6.8536,12.6193 10.635,19.0479 4.0176,6.6668 8.2716,14.286 9.6896,17.3812 2.5996,5.9524 6.3809,6.6668 12.9982,1.9048 2.5997,-1.6667 11.1076,-6.6667 18.9066,-10.9525 7.7989,-4.2858 18.6702,-10.9526 24.3422,-14.524 5.6719,-3.8096 10.6349,-6.9049 11.1076,-6.9049 2.5996,0 30.0141,-20.0003 30.9594,-22.6193 1.1817,-3.0954 -10.6349,-23.0957 -15.5979,-26.1909 -2.1269,-1.1905 -18.6702,8.3334 -49.157,27.8576 -9.4533,6.1905 -17.4886,9.2857 -21.5062,8.5715 -5.672,-1.1905 -6.6173,-42.8578 -1.418,-50.9532 1.8907,-3.0952 4.4903,-5.7143 5.672,-5.7143 1.1816,0 5.9083,5.4763 10.6349,11.9049 4.7266,6.6668 9.6896,11.905 11.1076,11.905 1.418,0 9.4533,-5.0001 17.7249,-11.1906 l 14.8889,-10.9527 -10.1623,-13.3334 c -20.7972,-27.3814 -32.1411,-45.715 -32.1411,-51.1912 0,-7.1429 2.127,-13.3335 4.963,-13.3335 2.3633,0 19.8519,22.143 48.6843,61.9057 6.381,8.5714 12.762,17.143 14.4163,19.0478 1.6543,1.9048 6.6173,8.5716 11.3439,15.0002 9.217,12.6192 12.5256,13.3335 22.688,6.1905 6.1446,-4.5239 7.7989,-4.7619 12.7619,-2.1428 11.3439,6.1905 8.0353,9.524 -44.4305,45.0007 -17.7249,11.9048 -33.0865,21.6669 -34.0318,21.6669 -0.9453,0 -3.545,1.4285 -5.4356,3.3334 -4.254,3.5715 -41.3581,23.8098 -71.1359,38.5718 -17.9613,9.0479 -29.5416,14.286 -56.2471,26.191 -12.2893,5.2381 -17.0159,4.5238 -17.0159,-3.3334 0,-5.4763 1.8906,-7.8573 9.4533,-12.143 5.1993,-2.8573 9.4532,-5.7144 9.4532,-6.4286 0,-0.7144 -3.3086,-8.3336 -7.3263,-17.1433 -21.7425,-47.1434 -19.3792,-44.2863 -39.4674,-47.1434 -9.6896,-1.1905 -13.9436,-0.4763 -22.6879,3.8096 -12.2892,5.9524 -21.5062,18.8098 -19.3792,26.9051 1.1817,4.762 2.3633,5.2382 12.053,4.5239 12.9982,-1.1906 31.4321,3.0952 37.5767,8.5715 5.672,5.2382 13.2346,20.4766 13.2346,26.667 0,2.6191 -2.127,8.8097 -4.4903,13.8097 -11.5802,22.8576 -38.2858,31.6672 -52.4657,17.3812 -9.2169,-9.5239 -9.2169,-20.0003 0.2364,-33.0956 4.0176,-5.4763 7.0899,-10.9526 7.0899,-12.3811 0,-3.0954 -11.1076,-3.0954 -12.9982,0 -1.8907,2.8572 -12.9983,3.0952 -17.2524,0.2381 -4.2539,-2.6191 -25.2875,4.5238 -28.5961,9.762 -1.6543,2.619 -1.8907,6.1906 -0.4727,9.5239 1.1817,3.0954 4.0177,11.6669 6.381,19.286 4.0176,13.5716 4.4903,14.0478 11.3439,12.6193 4.0176,-0.7144 11.8166,-2.1429 17.4887,-2.8572 9.9259,-1.6667 9.9259,-1.4287 9.9259,5.7143 0,6.6668 -0.9453,7.6191 -11.1076,10.7145 -6.3811,1.9048 -13.471,4.0476 -16.0707,4.7619 -2.5996,0.7144 -14.8889,3.8096 -27.1781,7.143 -54.829,14.286 -122.8927,25.9527 -170.6318,29.0481 l -22.9242,1.6667 z m 95.2419,-20.4764 c 18.1975,-4.0477 18.1975,-4.0477 14.1799,-23.5717 -2.127,-9.524 -4.7267,-18.5718 -6.1447,-20.2384 -3.7813,-4.524 -21.5063,-6.6668 -33.0865,-4.0477 -10.3986,2.381 -17.4886,8.5715 -15.5979,14.0477 0.709,1.9048 1.8906,9.286 2.5996,16.667 0.709,7.6192 1.6544,15.0002 2.3633,16.6668 0.9454,3.5716 19.8519,3.8097 35.6863,0.4763 z m 195.4466,-49.0484 c 7.0899,-7.381 7.5626,-11.6667 2.5996,-21.905 -7.5626,-15.0002 -21.0335,-11.4288 -23.6332,6.1906 -1.1816,7.6191 -0.4726,11.9048 2.3633,16.1907 4.7267,7.381 10.8713,7.1429 18.6703,-0.4763 z"
       id="path15"
       style="stroke-width:1" />
    <path
       d="m 1736.3654,8470.1759 c -4.7266,-1.9049 -5.4356,-4.0476 -5.4356,-14.0479 0,-15.4764 -1.1817,-18.3335 -10.8713,-24.286 -5.9083,-3.5715 -11.1076,-4.762 -19.3792,-4.0477 -8.7443,0.4762 -11.1076,0 -11.1076,-2.8571 0,-4.524 17.0159,-7.3811 31.4322,-5.4764 25.9965,3.3335 44.6667,34.5244 29.7778,49.2865 -4.0177,4.2858 -6.8536,4.5239 -14.4163,1.4286 z"
       id="path17"
       style="stroke-width:1" />
    <path
       d="m 1973.6429,8441.604 c -4.4903,-3.8095 -8.7443,-10.2381 -9.4533,-14.2859 -1.6543,-8.0953 -7.5626,-9.5239 -12.5256,-2.8571 -3.3086,4.5238 -9.2169,2.3809 -13.7072,-5.2382 -2.127,-3.0953 -1.6544,-4.5239 1.6543,-6.4287 5.9083,-3.5715 4.963,-8.0953 -3.545,-15.0002 -12.5257,-9.762 -23.6333,-19.0479 -26.4693,-21.667 -1.418,-1.4286 -9.9259,-8.5715 -19.1429,-15.9526 -47.03,-37.8577 -44.903,-35.7148 -44.903,-45.953 0,-8.0954 0.709,-9.5239 4.7266,-8.8096 2.5997,0.4761 8.0353,3.8094 11.8166,7.381 4.0177,3.5714 13.9436,11.905 22.4515,18.3335 8.508,6.4287 17.2523,13.5717 19.3793,15.9527 2.3633,2.1429 4.9629,4.0476 6.1446,4.0476 0.9453,0 4.254,2.381 7.5626,5.4764 13.2347,12.3811 38.2859,29.7623 41.1219,28.8099 5.6719,-2.1429 32.1411,-40.7149 30.7231,-44.7626 -1.418,-3.5715 -24.8148,-20.4764 -28.5961,-20.4764 -0.9454,0 -4.4904,3.8095 -7.5627,8.3334 -13.7072,20.4766 -24.1058,10.4763 -45.1395,-42.8577 -4.0176,-10.4764 -10.1622,-25.4766 -13.2345,-33.0957 -5.4357,-13.0955 -5.672,-14.524 -2.127,-17.8575 3.5449,-3.5715 4.2539,-3.3333 8.5079,1.9048 2.3633,3.0953 5.1993,8.3336 6.1446,11.9049 0.709,3.3335 4.4904,13.0954 8.2717,21.1908 3.5449,8.3335 6.6173,16.667 6.6173,18.3336 0,7.381 6.8537,10.4764 19.6156,9.0477 6.6173,-0.7143 12.7619,-1.6667 13.2346,-2.1428 0.4727,-0.4763 1.1816,-5.0001 1.418,-9.7621 0.2363,-5 0.709,-11.4288 0.9453,-14.2858 0,-2.8573 4.0176,-10.0003 8.508,-15.9527 4.4903,-6.1906 8.2716,-11.9049 8.2716,-13.0954 0,-2.1429 -43.9578,-28.81 -47.5028,-28.81 -2.836,0 -6.8537,-10.7143 -6.8537,-18.0954 0,-9.0477 -1.8906,-9.7621 55.5381,21.9051 7.799,4.2857 16.7796,9.2857 20.0882,11.1906 25.5239,14.524 42.7761,23.0955 45.8484,23.0955 3.3087,0 9.4533,-11.6668 28.1235,-52.6198 6.1448,-13.0954 7.0901,-15.7144 20.0883,-51.1911 7.09,-19.5241 6.8537,-27.1433 -0.7089,-27.1433 -1.8907,0 -7.09,-1.9047 -11.8166,-4.0477 -10.3987,-5 -14.6527,-2.1428 -10.3987,7.143 2.3633,5.2381 2.1269,8.0953 -1.418,16.1907 -2.5997,5.4763 -6.8537,11.4287 -9.926,13.3335 -4.7266,3.0952 -5.4356,5.7144 -5.4356,19.0479 0,18.3336 -4.963,28.5719 -17.9612,36.6673 -9.6896,5.9524 -17.7249,5.2381 -31.4322,-3.5716 -10.8713,-6.9048 -18.9065,-20.0003 -40.1764,-66.1914 -5.9083,-12.6192 -5.9083,-24.048 0,-25.2384 2.3633,-0.4762 5.1993,2.8571 7.7989,9.5239 18.6703,45.7149 25.9966,58.0961 37.5768,64.0485 7.09,3.8096 9.6896,4.0477 14.1799,1.9048 15.5979,-8.0954 20.5609,-26.4289 9.6896,-35.2385 -3.5449,-2.8573 -7.7989,-5.0002 -9.6896,-5.0002 -3.7813,0 -10.1622,-13.8098 -10.1622,-21.4288 0,-5.7144 3.5449,-5.2382 20.7972,2.8572 5.4356,2.6191 11.5802,4.0476 13.4709,3.3334 4.254,-1.4286 8.2716,-11.1907 8.2716,-19.5241 0,-5.9526 -4.4903,-8.8097 -30.7231,-18.8099 -5.9083,-2.3809 -13.9436,-5.7143 -18.1976,-7.381 -4.0176,-1.9047 -8.5079,-3.3333 -10.1623,-3.3333 -5.1993,0 -15.8342,-9.286 -18.9065,-16.667 -4.254,-10.2382 -0.4727,-13.5717 8.9806,-8.5715 4.0176,2.1428 8.5079,3.8095 9.9259,3.8095 1.6544,0 6.1447,1.4287 10.1623,3.3333 4.254,1.9049 9.6896,3.8097 12.2893,4.524 2.5996,0.7143 15.3615,5.2382 28.3598,10.0001 39.9402,14.2859 58.3741,20.2384 60.0284,19.0479 5.1993,-3.0953 33.0865,-113.8111 30.4868,-120.716 -0.9453,-2.1429 -7.5626,-4.762 -16.5432,-6.4287 -8.0353,-1.6667 -21.0336,-4.7619 -28.5962,-6.9048 l -13.7072,-3.5715 -12.5257,12.3812 c -9.926,9.762 -13.4709,15.7144 -16.7796,26.429 -4.0176,13.0954 -4.0176,14.524 -0.2363,20.2383 5.4356,8.3335 16.7795,8.0954 29.0688,-0.9525 7.7991,-5.7143 10.1624,-9.2858 13.471,-21.905 5.4357,-19.5241 5.4357,-19.5241 12.2893,-15.0002 6.8536,4.5239 7.5626,16.1907 2.3633,35.2385 -4.254,15.0003 -10.1623,38.5721 -12.0529,47.3817 -1.6544,7.8573 -8.0353,8.5716 -14.1799,1.6667 -3.7814,-4.2857 -4.0178,-5.9524 -1.6544,-12.8573 4.4903,-12.143 4.0177,-12.6192 -12.2893,-12.3811 -18.1976,0.2381 -24.1059,-4.0477 -30.7232,-22.3813 -6.1446,-17.3812 -4.2539,-29.7624 7.5626,-47.3817 5.1994,-7.8572 8.7443,-14.7621 8.0353,-15.4764 -0.709,-0.9524 -4.4903,-1.4285 -8.5079,-1.6667 -4.0177,0 -12.5256,-1.9047 -18.9066,-4.0476 -9.4532,-3.3334 -12.2892,-5.7144 -14.8889,-12.143 l -3.3086,-7.8573 13.7072,1.4286 c 7.5626,0.9523 21.2699,3.0953 30.2505,5 9.217,1.9049 25.0512,5.0002 35.4499,6.9049 31.1958,5.9525 47.03,9.0478 49.866,10.2383 5.1993,1.9047 10.3986,-6.6669 10.3986,-16.6669 0,-5.4763 1.418,-18.0955 3.3087,-27.8576 4.7266,-24.7623 3.545,-26.667 -18.1976,-25.7146 l -17.0159,0.7143 -2.3633,13.0954 c -1.8907,10.2382 -3.545,13.3335 -7.09,13.8097 -4.9629,0.7143 -20.7972,-9.5239 -35.9225,-23.3336 -4.963,-4.524 -17.9612,-15.7145 -28.8325,-25.0005 -19.1429,-16.1906 -24.3422,-23.0955 -22.2152,-29.0479 2.3633,-6.1906 8.0353,-2.6191 29.7778,19.524 12.762,12.8574 24.5785,22.6194 26.9419,22.6194 2.5996,0 10.3987,-3.0953 17.4886,-6.9048 15.1253,-8.0953 29.5415,-10.4764 46.5574,-7.6192 14.8889,2.3809 16.7796,0.2381 17.2522,-18.0955 0.4727,-19.0479 2.3634,-23.3336 11.344,-24.0479 l 8.0353,-0.7144 -1.418,19.7623 c -3.0723,48.0958 -14.8889,133.5733 -23.3969,168.5737 -1.418,5.9526 -3.3086,15.0003 -4.254,20.2384 -0.9453,5.2382 -2.8359,14.286 -4.4903,20.2385 -1.6543,5.9524 -4.2539,16.1907 -6.1446,22.6194 -4.0176,15.2382 -24.3422,79.5248 -27.1782,85.7154 -7.3263,17.1431 -11.8166,28.3337 -11.8166,30.0004 0,4.5239 -40.8855,89.287 -49.8661,103.3348 -7.3263,11.6669 -7.5626,12.6193 -3.545,18.3336 5.1993,7.381 5.1993,55.2388 0,78.8106 -10.3986,48.8103 -42.0671,74.763 -65.4639,54.0484 z m 34.9771,-24.5241 c 15.1252,-16.1907 20.7972,-34.2862 21.0335,-67.8581 0.2364,-20.0004 -0.4726,-27.6194 -2.5996,-28.3337 -1.6543,-0.7143 -3.7813,0.9524 -4.7266,3.3333 -1.8907,5.4763 -26.2329,42.3815 -41.3581,62.3818 -9.926,13.0954 -11.344,16.4289 -9.926,22.6194 2.127,11.1906 9.6896,18.0955 19.3792,18.0955 6.8537,0 10.1623,-1.9047 18.1976,-10.2382 z m 8.9806,-116.1921 c 14.8889,-25.2385 14.8889,-27.6194 1.6543,-34.7624 -5.9083,-3.0953 -11.5802,-6.6667 -12.7619,-7.8573 -5.4356,-5.4764 -17.0159,-2.381 -25.2875,6.6667 -9.9259,10.4763 -17.2522,25.0004 -15.1252,30.9529 1.6543,5.2382 29.3051,24.048 35.4497,24.048 3.545,0.2381 7.799,-5.0001 16.0706,-19.0479 z"
       id="path19"
       style="stroke-width:1" />
    <path
       d="m 1214.5443,8385.4128 c -23.1606,-3.8096 -36.6316,-8.0953 -51.9932,-16.1907 -14.1799,-7.6192 -22.9241,-15.4765 -21.9788,-20.0003 0.4726,-1.6667 8.7443,-6.4286 18.4339,-10.2383 14.8889,-6.1905 41.5945,-19.0478 68.0637,-32.8576 9.6896,-5 32.3774,-20.4764 61.9189,-42.1434 19.6156,-14.5241 50.1025,-43.5721 103.0408,-99.049 32.3775,-34.0482 51.5204,-47.3817 76.5716,-53.3342 33.0865,-8.0953 63.1007,0.7143 87.2066,25.0003 9.9259,10.0003 15.1252,18.8099 21.7425,38.096 12.0529,34.5242 -1.8907,74.5248 -38.5221,110.2395 -23.6332,23.0957 -43.9578,37.1434 -79.8803,55.239 -32.3775,16.4288 -54.12,24.7621 -86.2612,33.0957 -7.7989,2.1428 -18.9065,5 -24.8148,6.4286 -32.3776,8.8097 -98.7868,11.6669 -133.5276,5.7144 z"
       id="path21"
       style="fill:#aa4400;stroke-width:1" />
    <path
       d="m 992.39214,8379.6984 c -30.48686,-6.9049 -58.37392,-15.4764 -69.24521,-21.1908 -2.12698,-1.1905 -12.05293,-6.1905 -21.74253,-10.9525 -9.68961,-4.7619 -20.79721,-10.7144 -24.81495,-13.0954 -3.78131,-2.6192 -8.74428,-5.4763 -10.63495,-6.4286 -9.21695,-4.2859 -39.2311,-26.4291 -56.956,-41.9054 -56.247,-48.8103 -89.33356,-94.7634 -101.38649,-140.2401 -5.43563,-20.2384 -6.14463,-37.1434 -1.65432,-39.0482 1.65432,-0.4762 14.41625,5.4762 28.59616,13.3335 13.94368,7.8572 25.99661,14.286 26.7056,14.286 0.94533,0 6.85363,2.619 13.70725,5.7143 23.6332,11.4287 66.64561,25.4765 100.44109,33.3338 32.14124,7.143 119.34765,18.0955 145.34411,18.0955 13.4709,0 43.2488,7.8572 57.6651,15.2382 18.1975,9.0479 27.8871,17.3813 37.3404,31.6673 15.1253,23.0954 19.8519,44.2863 14.8889,68.0961 -4.0176,19.048 -9.6896,30.0004 -24.1058,45.953 -25.5239,28.0957 -66.6457,37.8578 -114.14836,27.1433 z"
       id="path23"
       style="fill:#aa4400;stroke-width:1" />
    <path
       d="m 338.46136,8342.3169 c -3.07232,-3.8095 -15.12525,-23.5718 -32.14115,-53.0959 -8.03537,-13.5717 -35.92254,-70.9535 -35.92254,-73.5726 0,-4.7619 -7.79896,-9.762 -15.36158,-9.762 -13.70725,0 -44.4304,-7.6192 -52.46569,-13.0954 -12.99825,-8.5715 -17.48856,-16.4288 -17.72489,-30.0005 0,-10.4763 0.94533,-13.0954 7.79895,-20.2383 7.08996,-7.3811 8.74429,-7.8573 25.52385,-8.5716 20.08822,-0.7143 20.08822,-0.9523 13.47092,-18.5717 -6.61729,-17.8574 -21.74254,-73.8105 -28.35983,-105.9538 -11.1076,-55.0009 -27.17817,-181.4312 -23.39686,-187.3836 1.89066,-3.3334 14.88891,-2.143 16.3069,1.4285 0.709,1.6667 1.89066,14.2859 2.83599,27.8575 l 1.65432,24.7624 15.36157,0.7143 c 20.56088,0.7142 21.97887,-0.7143 21.50621,-18.3337 -0.47266,-13.8097 0,-14.524 5.9083,-15.9526 6.85362,-1.6667 10.63494,0 64.75504,29.048 27.88717,15.0003 33.08647,18.8098 33.08647,25.0004 0,8.0954 -4.96297,7.3811 -20.79721,-3.3334 -32.14124,-21.667 -45.13949,-26.9051 -49.39347,-20.0003 -2.83598,4.7619 -19.85188,16.9051 -29.77782,21.4289 -4.96297,2.1429 -14.65258,4.0477 -21.97887,4.0477 -8.03528,0 -13.23459,1.1904 -13.94358,3.0953 -0.709,1.4285 -0.47267,10.9524 0.47266,20.7145 l 1.89066,17.8574 h 11.81659 c 6.6173,-0.238 18.67023,-1.6666 27.17818,-3.3334 8.50794,-1.6667 23.86952,-4.5237 34.26812,-6.4286 10.39861,-1.9048 25.76028,-5 34.26823,-6.9048 13.94358,-2.8573 16.07057,-2.8573 22.45153,0.9524 12.05293,6.9048 10.3986,11.4287 -5.1993,14.524 -7.56262,1.4285 -21.03354,4.0476 -30.25058,5.9524 -8.98061,1.9049 -25.52385,5 -36.63145,7.143 -11.1076,2.1428 -27.4145,5.7143 -36.15879,7.6192 l -16.07057,3.5714 0.709,10.0001 c 0.709,9.5239 0.94533,9.7621 10.16227,10.4763 4.96297,0.4763 15.59791,-0.9524 23.63319,-3.0952 25.52385,-7.3811 41.35809,-4.762 52.70202,8.3334 6.85372,7.8573 12.52569,24.2861 11.81669,33.8101 -0.70899,10.7144 -1.65432,9.762 20.32455,20.2384 7.56262,3.5714 14.41625,7.8572 14.88891,9.5239 0.709,1.6667 3.30865,3.0952 5.67197,3.0952 3.07231,0 6.61729,-5 12.99825,-18.3335 14.88891,-32.3814 18.19756,-38.8101 20.79721,-38.8101 1.41799,0 5.67197,2.3811 9.21695,5.4762 6.38096,5.0002 6.61729,5.4763 2.83598,12.3812 -2.12699,4.0477 -5.9083,10.4764 -8.27162,14.2859 -2.59965,4.0477 -5.67196,9.5239 -6.85362,12.3812 -1.18166,2.619 -3.54498,5.7143 -4.72664,6.6667 -1.41799,0.7144 -2.59965,3.8096 -2.59965,6.9049 0,5.9525 6.14463,9.2858 31.66848,17.8574 14.41624,4.5238 19.14288,8.8097 15.83424,14.0478 -3.30865,5.4762 -10.63494,4.0477 -35.21346,-6.6668 -13.23459,-5.7143 -24.57852,-9.762 -25.28752,-9.0477 -0.70899,0.7143 0.47267,5.0001 2.36332,9.762 1.89066,4.762 3.54498,15.2384 3.54498,23.0956 0,15.9525 -2.36332,18.5716 -13.23459,15.0002 -5.9083,-1.9047 -6.14463,-2.8572 -7.08996,-22.8574 -0.94532,-23.5719 -7.08995,-36.6673 -19.61555,-43.334 -14.17991,-7.3811 -33.32289,-1.6667 -39.70385,11.6667 -3.54498,7.8573 -3.54498,9.0479 4.4903,33.572 l 8.27162,25.2385 -4.96297,3.3333 c -2.59965,1.6668 -10.87127,5.4763 -17.96122,8.5716 -17.7249,7.143 -19.14289,8.5716 -17.25224,16.1907 3.07232,12.3811 10.39861,26.429 13.94359,26.429 1.89065,0 10.63494,-3.3334 19.37922,-7.3811 8.74437,-4.0476 20.56097,-9.524 26.46926,-12.143 12.05293,-5.2382 21.74254,-9.762 47.73905,-21.905 20.32455,-9.5241 20.56088,-9.5241 29.06883,-5.7145 5.9083,2.6191 8.27162,9.0478 3.54498,9.0478 -1.41799,0 -15.59791,6.1906 -31.43215,14.0477 -58.13765,28.0957 -74.91731,35.953 -76.80797,35.953 -1.18165,0 -4.25397,2.1429 -7.08995,4.762 -5.67197,5.4762 -5.67197,5.7144 6.61729,32.1432 4.01764,8.5717 8.74428,16.1908 10.87136,17.1432 4.72664,1.6667 17.7249,-3.8096 22.68787,-9.7621 4.96297,-5.9524 5.43563,-15.9526 1.41799,-26.9051 -2.36332,-6.9048 -2.36332,-8.5715 0.47266,-10.2383 7.08996,-4.5238 19.61555,-5.2381 32.85014,-2.1428 21.26987,5.0001 40.41276,28.3337 40.41276,49.2863 0,7.3811 3.07232,7.8573 12.05293,2.143 4.4903,-2.8572 10.16227,-6.6668 12.76192,-8.3335 13.70725,-8.5716 27.4146,-8.5716 29.06892,0.2381 0.709,3.0953 -16.30699,16.4288 -29.06892,23.0956 -1.18166,0.7143 -8.74428,5.4762 -16.54323,10.7143 -7.79896,5.2383 -15.12525,10.0003 -16.54324,10.7146 -12.52559,6.4287 -48.44804,32.3814 -48.44804,35.0005 0,1.9047 1.89065,6.6667 4.01764,10.4763 3.07232,5.2382 3.54498,8.0953 1.65432,11.1907 -3.54498,5.7143 -8.98061,6.1905 -13.23458,1.1904 z m 16.77956,-56.6674 c 25.52385,-16.1908 28.59617,-20.2384 28.59617,-37.1435 0,-15.4764 -14.17992,-37.6195 -26.46918,-41.6673 -7.32629,-2.1428 -9.68961,1.9049 -6.85363,12.1431 4.72664,17.8575 -7.56262,35.0005 -27.88716,38.3339 -13.94359,2.381 -13.70726,4.5239 5.90829,36.1911 l 3.54498,5.2381 9.68961,-5.2381 c 5.19931,-3.0954 11.34394,-6.6668 13.47092,-7.8573 z m -99.49583,-94.7633 c 1.89065,-2.1429 1.41799,-5.7144 -1.65432,-12.3812 -2.36332,-5.2381 -4.72664,-12.143 -5.67197,-15.4764 -0.709,-3.3333 -3.78131,-8.5714 -6.6173,-11.6668 -7.08995,-7.6192 -23.16052,-5.9525 -33.08647,3.5715 -10.3986,10.0002 -8.74428,19.7623 5.43564,29.7623 11.1076,8.0954 37.10411,11.905 41.59442,6.1906 z m 13.47092,-74.763 c 9.45328,-4.5239 10.63494,-10.7144 4.25397,-22.8575 -5.67196,-11.1906 -5.67196,-37.6195 0,-44.0482 2.59965,-2.8572 3.78131,-6.1906 2.83599,-7.6191 -0.709,-1.4286 -8.74429,-6.1906 -17.25223,-10.7145 -8.74429,-4.5238 -19.85189,-10.4764 -24.81486,-13.5716 -10.3986,-6.1906 -15.83424,-3.8096 -11.1076,5.0001 1.41799,2.8571 3.54498,10.7144 4.72664,17.6193 1.18166,6.9048 4.49031,20.0003 7.08996,29.048 2.83598,9.2859 5.9083,20.4765 7.08996,25.0004 1.18166,4.5238 3.78131,12.3811 5.90829,17.3812 4.01765,10.0001 8.27162,10.9525 21.26988,4.7619 z m 22.9242,-95.7157 c 1.41799,-8.8095 0.94532,-14.7621 -1.65433,-20.4764 -2.83598,-7.143 -4.4903,-8.3334 -11.34393,-8.3334 -4.49031,0 -12.76192,1.6667 -18.19756,3.5714 -5.43563,1.9048 -12.99826,3.5715 -16.77957,3.5715 -4.01764,0 -6.85362,1.1905 -6.85362,3.0953 0.23633,3.5715 6.38096,8.0953 27.17817,19.5241 9.21695,5.0001 17.48856,10.0001 18.90655,10.9525 4.25398,4.0477 7.08996,0.4762 8.74429,-11.905 z"
       id="path25"
       style="stroke-width:1" />
    <path
       d="m 1596.2205,8157.0762 c 0,-1.9048 1.418,-7.6192 3.3087,-12.3812 3.7813,-10.2381 8.7442,-30.2385 13.9435,-54.2864 13.9436,-64.0485 13.7073,-151.9069 -0.2363,-228.5747 -2.3633,-12.8573 -3.7813,-34.7624 -4.0176,-54.7627 0,-33.0958 1.8906,-43.0958 10.8712,-58.3341 1.1817,-1.9048 3.0724,-5.7144 4.254,-8.3335 6.1446,-13.3335 27.6509,-30.4766 46.3212,-36.9052 38.2857,-13.3336 82.9525,2.1428 105.6403,36.667 14.18,21.1909 18.6703,37.6197 20.0883,72.6202 1.6544,45.7149 -2.3633,81.6678 -14.4162,122.8589 -31.1959,106.9063 -104.6951,205.2411 -165.6689,221.6698 -15.3615,4.2858 -20.0882,4.0477 -20.0882,-0.2381 z"
       id="path27"
       style="fill:#aa4400;stroke-width:1" />
    <path
       d="m 666.25392,8080.6465 c -22.68786,-8.8096 -31.66847,-14.524 -46.55739,-30.0003 -8.98061,-9.0478 -16.07057,-17.8575 -16.07057,-19.7623 0,-1.6667 -1.41799,-4.0477 -3.07231,-5.4762 -1.41799,-1.4287 -6.38106,-9.762 -10.63503,-18.8099 -12.28926,-25.2384 -14.41625,-30.0004 -16.07057,-37.1434 -0.709,-3.5714 -2.36332,-7.1429 -3.54498,-7.8572 -1.18166,-0.7142 -2.12699,-3.8095 -2.12699,-7.143 0,-3.3333 -0.94533,-7.8572 -2.36332,-10.2382 -7.32629,-14.0478 -16.54323,-81.6678 -16.54323,-122.8588 0,-28.5719 4.72664,-76.1916 9.45327,-94.7633 9.21695,-35.2386 15.36158,-51.9055 30.01416,-78.5725 5.1993,-9.7621 28.83259,-32.6196 33.32289,-32.6196 4.01765,0 5.19931,2.6191 7.56263,17.3812 13.94358,88.0965 43.95773,160.4785 104.69504,251.4322 10.16227,14.762 18.19765,27.3814 18.19765,28.0956 0,0.4761 2.59965,4.5239 5.67197,8.5715 7.08995,9.7621 12.28926,20.7146 18.43389,38.0958 7.08995,20.4766 5.43563,54.7627 -3.54498,73.3344 -7.08996,14.524 -23.86953,33.0956 -35.44988,39.0483 -24.81486,13.0954 -52.46569,16.4287 -71.37225,9.2857 z"
       id="path29"
       style="fill:#aa4400;stroke-width:1" />
    <path
       d="m 1136.5546,7977.3117 c -6.3809,-0.9524 -18.1975,-4.2857 -25.9965,-7.143 -7.7989,-2.619 -16.3069,-5.7143 -18.9065,-6.4286 -12.9983,-4.0477 -44.9031,-26.1908 -60.9738,-42.1435 -27.6508,-27.3813 -40.88536,-50.2388 -55.30156,-94.287 -3.30866,-10.4764 -4.25396,-20.7145 -4.25396,-52.3818 0.2363,-40.4767 0.9453,-44.7624 13.47086,-78.5724 8.2716,-21.667 22.92416,-43.5721 43.95776,-65.001 48.6844,-50.0007 119.584,-71.6677 186.7024,-56.6675 49.6297,11.1907 86.0248,34.2863 118.6386,75.2392 26.7056,33.5719 42.5398,80.2393 42.5398,125.478 0,54.7627 -21.7425,106.6682 -60.7374,145.2401 -15.8342,15.7145 -41.8307,35.2387 -47.03,35.2387 -1.418,0 -4.0177,1.4285 -5.4357,3.3334 -1.418,1.9047 -5.1993,3.8095 -8.0352,4.5238 -2.836,0.7143 -13.2346,4.0477 -22.9242,7.6192 -15.1253,5.2381 -22.6879,6.4287 -50.8115,7.143 -18.1976,0.4761 -38.2858,0 -44.9031,-1.1906 z m 75.1537,-61.6675 c 29.3051,-8.5716 56.956,-27.6195 75.8625,-52.6198 42.5398,-55.7151 38.5221,-134.5257 -9.6896,-188.336 -9.9259,-10.9525 -36.8678,-29.2861 -50.8113,-34.2862 -50.3388,-18.5717 -101.3865,-11.6669 -141.3266,19.0478 -37.5768,29.0481 -56.7198,68.5724 -56.7198,116.6684 0,26.667 4.254,43.5721 17.016,68.3343 7.799,15.4764 38.7584,49.5245 49.3934,54.2865 3.0723,1.4286 8.9806,4.2858 12.7619,6.6668 27.1782,15.0002 71.6086,19.286 103.5135,10.2382 z"
       id="path31"
       style="fill:#002255;stroke-width:1" />
    <path
       d="m 312.93751,7772.7851 c -3.30865,-6.1906 -0.709,-11.905 6.14463,-13.5717 9.92594,-2.6191 17.0159,8.0953 9.92594,15.2383 -4.25398,4.2858 -13.23459,3.3334 -16.07057,-1.6666 z"
       id="path33"
       style="stroke-width:1" />
    <path
       d="m 2026.3449,7773.7374 c -2.5997,-3.0953 -2.5997,-4.762 0,-9.5239 3.7813,-7.143 9.6896,-7.6192 15.1252,-1.4287 3.3087,3.5716 3.545,5.7144 1.418,9.524 -3.0723,5.9525 -12.2892,6.6668 -16.5432,1.4286 z"
       id="path35"
       style="stroke-width:1" />
    <path
       d="m 273.94265,7696.1173 c -7.79896,-0.9524 -29.06883,-3.0953 -47.26639,-4.524 -34.0318,-2.619 -41.12175,-5 -38.04944,-13.0953 1.18166,-3.3334 4.25398,-3.5715 24.34219,-2.381 12.76192,0.9523 33.55913,3.0953 46.08473,5 27.88716,4.0477 33.3228,4.0477 32.14114,0.7144 -0.709,-2.3811 -15.12525,-11.4288 -29.06883,-18.8099 -2.59965,-1.4285 -7.56262,-4.2858 -10.87127,-6.6667 -3.30865,-2.1428 -11.81659,-7.6192 -18.90655,-11.6669 -15.59791,-9.524 -35.68612,-24.7622 -36.86778,-28.0956 -0.47267,-1.4286 0.70899,-4.5238 2.36332,-7.143 3.30864,-4.2857 4.01764,-4.2857 25.52384,-0.2381 36.39512,6.6668 56.48334,10.4764 80.11662,14.5241 12.28926,2.1429 25.28752,4.5238 28.8325,5 6.14463,1.1906 10.16227,6.6668 7.56262,10.7145 -2.12699,3.8095 -6.85363,3.0952 -69.48168,-8.8096 -30.48682,-5.7144 -38.28577,-4.0477 -24.57852,5.2381 4.4903,3.0953 8.74428,5.7144 9.21694,5.7144 0.47267,0 5.43564,3.0952 11.1076,6.9049 5.67197,3.8095 14.41625,9.2857 19.61555,12.143 5.19931,2.8571 12.76193,7.143 16.54324,9.5239 4.01773,2.381 11.58036,6.9048 17.25232,10.0002 10.63494,5.4762 16.07057,12.143 13.47092,16.1907 -1.65432,2.8572 -38.5222,2.619 -59.08307,-0.2381 z"
       id="path37"
       style="stroke-width:1" />
    <path
       d="m 2024.6906,7694.6887 c -4.254,-2.143 -8.9806,-7.3811 -11.1076,-12.3811 -4.254,-9.0478 -8.9806,-44.0483 -6.8537,-49.5246 1.418,-3.3334 1.1817,-3.3334 33.7955,-9.0477 53.6475,-9.2859 62.3917,-10.9526 81.2983,-14.5241 22.4515,-4.5238 28.1235,-3.5713 26.9418,4.2858 -0.709,4.5239 -3.0723,5.7144 -17.2522,8.3335 -8.9806,1.6667 -22.2152,3.5715 -28.8325,4.5239 -6.8536,0.9524 -13.4709,2.8571 -14.6526,4.2858 -3.3086,3.8095 0.709,20.2383 6.1447,25.4764 2.3633,2.3811 17.0159,8.5716 32.6138,13.8097 l 28.3598,9.286 0.709,8.5715 c 0.4727,4.7619 -0.2363,8.5716 -1.1817,8.5716 -1.1816,0 -7.7989,-2.143 -14.8889,-5.0001 -7.0899,-2.8572 -15.5979,-5.4763 -18.6702,-6.1906 -3.0723,-0.7143 -10.1623,-3.8096 -16.0706,-6.9048 -5.6719,-3.0953 -11.5802,-5.7144 -13.2346,-5.7144 -1.6543,0 -5.4356,4.2857 -8.5079,9.2859 -3.0723,5 -9.2171,10.9525 -13.7074,13.0954 -10.1622,5 -34.7408,4.7619 -44.903,-0.2381 z m 41.8307,-14.7621 c 5.4357,-4.2858 5.672,-5.9525 5.1993,-22.8576 -0.2363,-10.2381 -1.1816,-19.524 -2.127,-20.7145 -2.1269,-3.5715 -35.6861,-0.2382 -42.5397,4.0477 -4.254,2.8571 -4.963,5.0001 -4.0176,11.4287 2.8359,16.1908 5.9082,25.4765 9.4532,29.0481 5.4357,5.2381 26.4692,4.7619 34.0318,-0.9524 z"
       id="path39"
       style="stroke-width:1" />
    <path
       d="m 1720.5312,7662.3073 c -28.3598,-42.3816 -64.5186,-80.4774 -112.7304,-119.5255 -12.053,-9.7621 -48.2117,-34.7624 -54.12,-37.6197 -1.8907,-0.9524 -6.6173,-3.8095 -10.635,-6.4286 -3.7813,-2.6191 -8.7443,-5.4763 -10.6349,-6.4287 -10.1623,-4.7619 -52.4658,-31.429 -64.2824,-40.4767 -33.5591,-25.7147 -50.575,-63.5724 -44.4304,-98.0966 8.0353,-43.334 41.3581,-73.0963 85.0796,-75.9536 24.3422,-1.4285 47.0301,5.7145 75.1536,23.5719 35.2134,22.3811 79.4076,70.0009 106.8221,115.2396 11.1076,18.3336 30.4868,56.6676 36.1588,71.4297 22.4515,59.5246 26.4691,78.5725 26.2328,125.0018 0,36.6671 -0.2363,36.9052 -7.7989,53.096 -4.254,8.8096 -8.508,15.9525 -9.4533,15.9525 -0.9454,0 -7.799,-9.0477 -15.3616,-19.7621 z"
       id="path41"
       style="fill:#aa4400;stroke-width:1" />
    <path
       d="m 681.6155,7620.4019 c -20.56088,-4.2858 -47.73905,-26.1908 -57.90132,-46.1911 -21.03354,-41.4293 -10.16228,-95.4776 32.14114,-161.1928 38.5221,-59.5247 108.00378,-120.716 172.28607,-151.4308 7.08995,-3.3333 14.88891,-7.1429 17.0159,-8.3334 15.36157,-7.8572 59.31942,-18.8098 75.86266,-18.8098 12.28927,0 34.74073,6.4287 34.74073,9.7621 0,1.4287 -7.32626,10.7144 -16.07056,20.7145 -25.28747,29.0481 -53.17464,66.6676 -60.26459,81.4297 -0.94542,1.9049 -4.01774,7.3812 -6.61739,11.905 -10.16229,16.905 -35.21348,69.5248 -35.21348,73.8107 0,1.1904 -1.41799,5.7143 -3.30864,10 -6.14463,14.524 -10.39861,26.667 -17.96123,51.9055 -4.01764,13.8097 -8.98061,28.5719 -10.87127,32.8576 -1.89065,4.2857 -3.30865,8.8097 -3.30865,10.2384 0,2.857 -4.4903,13.3334 -12.76192,30.4764 -6.85363,14.286 -31.43215,39.0483 -46.32115,46.6674 -9.68961,5.0001 -16.54323,6.4287 -32.85014,7.1429 -11.1076,0.4763 -24.10585,0.2381 -28.59616,-0.9523 z"
       id="path43"
       style="fill:#aa4400;stroke-width:1" />
    <path
       d="m 199.49809,7588.7348 c 0.23633,-8.3335 4.72664,-10.2382 26.46918,-11.4288 l 21.97886,-1.1904 1.65433,-11.4287 c 0.70899,-6.4287 2.59965,-14.5241 3.78131,-18.0955 2.59965,-7.6193 1.65432,-10.0002 -6.61729,-13.8099 -13.23459,-6.6667 -26.94184,-15.0001 -28.8325,-17.8573 -7.08996,-11.6668 4.01764,-13.5716 19.85188,-3.5715 6.85363,4.2858 14.17992,8.8097 16.07057,9.7621 1.89066,0.9524 5.67197,2.8572 8.27162,4.5239 10.63494,6.4286 42.30351,24.0479 74.44465,41.4291 5.9083,3.0953 11.58026,7.381 12.52559,9.524 4.49031,8.0954 -2.83598,9.5239 -60.97373,12.3811 -73.73556,3.5715 -88.62447,3.3334 -88.62447,-0.2381 z m 123.83802,-13.3336 c 1.65433,-2.8571 -47.03014,-27.6194 -51.28412,-25.9527 -3.78131,1.4287 -9.92594,21.429 -7.56262,25.2384 1.65432,3.0954 56.95609,3.5716 58.84674,0.7143 z"
       id="path45"
       style="stroke-width:1" />
    <path
       d="m 2086.6096,7588.9729 c -11.5803,-0.9524 -36.8678,-2.6191 -56.0107,-3.3333 -26.4692,-1.1906 -34.9772,-2.3811 -35.9225,-5.0002 -1.8906,-4.7619 0.2364,-9.0477 6.381,-11.9049 15.5979,-7.6192 81.7709,-43.334 85.5522,-46.1911 6.381,-4.762 34.2682,-19.048 37.5768,-19.048 4.963,0 4.7266,7.8573 -0.2363,12.1431 -2.3633,1.9048 -8.9806,5.9524 -14.8889,9.0477 -14.18,7.6192 -19.1429,12.1431 -17.9613,16.667 0.4727,2.1429 1.6544,9.0477 2.5997,15.2383 2.3633,17.6193 6.8536,20.7145 29.3051,20.7145 16.7796,0 18.9066,0.4763 20.3246,4.762 0.709,2.6192 0.709,5.7144 0,7.1429 -1.6543,2.6191 -25.2875,2.6191 -56.7197,-0.238 z m -7.5626,-23.5718 c -1.1816,-13.5716 -2.836,-19.0479 -6.6174,-19.0479 -4.0176,0 -42.3034,19.286 -49.6297,24.7623 -4.254,3.3333 -2.127,3.8096 25.9965,3.0953 l 30.7233,-0.4763 z"
       id="path47"
       style="stroke-width:1" />
    <path
       d="m 345.31498,7542.0675 c -3.78131,-4.0478 -3.78131,-5 0,-14.524 2.36332,-5.9526 3.07232,-10.7145 1.65433,-11.905 -1.18166,-0.9524 -13.23459,-5.2382 -26.94184,-9.524 -13.70726,-4.2857 -28.59626,-9.2858 -33.08657,-10.9524 -4.4903,-1.4286 -19.37922,-6.6668 -33.08647,-10.9527 -18.43389,-6.1904 -25.05118,-9.2857 -25.52385,-12.6191 -1.41799,-6.4287 3.54498,-8.3335 13.47092,-5.0001 20.08822,6.9049 26.46918,9.0477 51.0477,17.1431 14.41634,4.5239 29.54158,10.0002 33.79556,11.6669 4.25397,1.9046 11.8166,4.0476 17.0159,4.7619 l 9.21694,1.4286 2.83599,-10.7145 c 2.59965,-10.9525 6.38096,-14.5239 12.76192,-12.143 7.56262,3.0953 6.85363,10.2383 -2.59965,37.3816 -1.89066,4.7619 -3.30865,11.4287 -3.30865,14.2858 0,6.4287 -6.14463,15.9526 -10.3986,15.9526 -1.65433,0 -4.72664,-1.9047 -6.85363,-4.2857 z"
       id="path49"
       style="stroke-width:1" />
    <path
       d="m 1982.6235,7527.5435 c -3.545,-5.9526 0.709,-8.3335 36.1588,-19.286 18.6702,-5.9524 19.6155,-7.3811 13.7072,-23.0957 -1.8906,-5 -4.0176,-11.9048 -4.7266,-15.2382 -2.3633,-10.7145 -6.8536,-10.7145 -34.5045,0.2381 -7.0899,3.0953 -16.5432,5.9524 -20.7972,6.4286 -6.8536,1.1905 -7.7989,0.7143 -7.0899,-3.0952 0.709,-3.8097 15.1252,-11.1907 42.776,-21.4289 4.7267,-1.9048 12.762,-4.762 17.7249,-6.6668 4.7267,-1.9048 16.7796,-6.6667 26.4692,-10.4764 46.7938,-19.0478 44.6668,-18.3336 48.6845,-14.524 3.0723,3.3334 3.0723,4.0477 -0.709,7.3811 -3.3087,3.0953 -36.1589,16.4289 -54.3565,22.1432 -4.0176,1.4285 -3.7813,10.9525 0.2364,21.9051 1.8906,5 4.0176,11.9049 4.7266,15.7145 2.127,9.7619 7.3263,9.0477 54.1201,-6.9048 12.053,-4.2858 17.0159,-2.6191 15.3616,5 -0.709,4.0476 -4.7266,5.7143 -51.5205,20.0003 -13.7072,4.0477 -34.9771,10.7144 -47.2663,14.524 -28.5962,9.2858 -36.8678,10.7144 -38.9948,7.3811 z"
       id="path51"
       style="stroke-width:1" />
    <path
       d="m 368.47551,7466.5902 c -3.78131,-1.6667 -11.34393,-4.762 -16.54323,-6.6668 -5.19931,-1.9047 -13.70726,-5.2381 -18.90656,-7.1429 -9.45328,-3.8096 -57.19242,-22.3812 -76.09897,-29.7624 -10.16227,-4.0476 -12.76193,-8.8096 -7.56262,-14.0478 1.89065,-1.9048 6.14463,-0.9524 15.83424,3.3334 7.32629,3.0953 22.92419,9.5239 34.74079,14.2859 11.58036,4.5239 24.57861,9.524 28.35992,11.4288 4.01765,1.6667 11.34394,4.7619 16.54324,6.6667 36.63145,14.0479 41.59442,17.1431 37.57677,23.3337 -1.65432,2.8572 -5.43563,2.619 -13.94358,-1.4286 z"
       id="path53"
       style="stroke-width:1" />
    <path
       d="m 1958.9903,7438.7327 c -11.8166,-6.4287 -15.3616,-11.905 -15.3616,-23.3337 0,-12.8573 6.8536,-24.0479 24.1059,-39.2863 11.5802,-10.2382 38.2858,-24.5242 57.1923,-30.7148 14.6526,-4.7619 32.6138,-5 41.5944,-0.238 9.6897,5 18.9067,19.524 18.9067,29.7623 0,10.2383 -10.8714,27.1432 -23.397,36.1911 -7.3263,5.2381 -9.2169,5.7143 -12.7619,3.0952 -5.4356,-4.0477 -5.1993,-5.0001 4.4903,-13.5716 16.5432,-14.524 19.1429,-27.1433 7.799,-37.8577 -9.926,-9.2859 -24.1059,-9.2859 -47.0301,0 -31.6685,13.0954 -56.7197,34.7624 -56.7197,49.0483 0,9.2858 9.4533,15.4764 23.1606,15.4764 13.2346,0 17.7249,4.0477 12.2892,10.7145 -3.545,4.2857 -27.1781,4.7619 -34.2681,0.7143 z"
       id="path55"
       style="stroke-width:1" />
    <path
       d="m 337.75236,7423.2563 c -31.43215,-11.905 -43.48517,-19.286 -57.42875,-35.2387 -16.77957,-19.2859 -17.0159,-40.4767 -0.23633,-54.0483 7.79895,-6.4287 10.16227,-6.9049 26.23293,-6.9049 17.7249,0 25.05119,2.1429 48.21172,13.8098 36.86778,18.3335 60.02831,48.8101 51.99302,68.5724 -6.14463,14.2858 -13.47092,17.8573 -37.81311,17.6191 -12.76192,-0.238 -25.28751,-1.6666 -30.95948,-3.8094 z m 48.92071,-14.5241 c 12.05293,-12.143 1.65432,-33.0956 -24.81485,-49.7626 -20.79721,-13.3335 -33.79547,-17.8574 -50.57504,-18.0954 -19.61564,-0.2382 -26.7056,5.7143 -26.7056,22.1431 0,10.0001 1.18166,12.143 10.16228,21.1908 12.52568,12.8573 29.77791,22.1431 52.46578,28.8099 12.52559,3.8096 33.79546,1.4286 39.46743,-4.2858 z"
       id="path57"
       style="stroke-width:1" />
    <path
       d="m 418.10522,7358.4933 c -1.418,-0.9524 -11.8166,-6.9048 -23.6332,-13.3334 -11.58026,-6.1906 -22.2152,-11.905 -23.63319,-13.0954 -1.18166,-0.9524 -9.45328,-5.4763 -18.19756,-10.4763 -41.59442,-22.3813 -48.21171,-26.4291 -50.81146,-29.7624 -7.08995,-9.7621 5.43573,-9.7621 21.03364,-0.238 6.14463,4.0476 11.81659,7.1428 12.28926,7.1428 0.70899,0 8.74428,4.5239 18.43389,10.2382 9.45328,5.7145 18.90655,10.9527 20.79721,11.9051 1.89065,0.9524 6.85362,3.8095 10.63494,6.1905 4.01764,2.6191 7.79895,4.7619 8.98061,4.7619 1.65432,0.2382 -2.83598,-9.2858 -5.67197,-11.6667 -3.07231,-2.6191 -25.76018,-31.191 -43.24874,-54.2865 -10.63494,-14.2859 -17.72489,-25.9528 -17.0159,-28.0956 2.36332,-5.9526 11.58027,-3.5716 28.1235,7.381 8.98061,5.9524 16.54324,10.7144 17.0159,10.7144 0.47266,0 7.56262,4.7619 15.83424,10.2383 8.27162,5.7143 16.07057,10.9525 17.25223,11.4287 8.74428,3.5715 48.44814,31.9052 48.44814,34.5243 0,7.6191 -5.90839,6.1906 -24.81495,-6.1906 -3.78131,-2.6191 -8.74428,-5.4763 -10.63494,-6.4287 -1.89065,-0.9523 -10.16227,-6.1904 -18.19755,-11.9049 -8.27162,-5.7143 -15.59791,-10.2382 -16.30691,-10.2382 -0.70899,0 -4.72664,-2.6191 -8.98061,-5.9525 -7.32629,-5.7144 -13.23459,-7.6191 -13.23459,-4.5238 0,1.6666 11.34393,16.905 22.45154,29.7623 3.78131,4.5239 12.99825,15.7145 20.08821,24.7622 7.08996,8.8096 14.65258,17.8575 16.54323,20.0003 7.56263,7.8573 9.45328,11.6669 8.03529,15.4764 -1.65432,4.0477 -8.03529,5.0002 -11.58026,1.6666 z"
       id="path59"
       style="stroke-width:1" />
    <path
       d="m 1052.6568,7343.017 c -62.39166,-11.6668 -92.16942,-78.3344 -60.97366,-135.9543 15.83416,-29.0481 53.88366,-50.2388 111.78506,-61.6676 25.5238,-5 101.8591,-5.2381 125.256,-0.2381 8.9806,1.9048 19.1429,3.5715 22.2152,3.5715 5.9083,0 17.0159,2.8572 55.7743,15.0002 41.8309,12.8574 89.3336,38.334 112.0214,59.7628 14.889,14.286 28.8325,33.81 30.2505,42.8578 l 1.1817,7.8572 -39.7038,-1.1905 c -79.1713,-2.3809 -147.4712,9.7621 -225.4608,40.0006 -7.09,2.8572 -15.5979,5.9524 -18.9066,7.143 -3.3086,1.1904 -11.8166,4.2857 -18.9065,7.1429 -25.7602,9.762 -39.2311,13.8097 -56.0107,16.4287 -19.3792,3.0954 -18.1976,3.0954 -38.5221,-0.7142 z"
       id="path61"
       style="fill:#aa4400;stroke-width:1" />
    <path
       d="m 1909.8332,7344.9218 c -0.9454,-0.9524 -1.6544,-3.0952 -1.6544,-4.7619 0,-2.8573 112.4941,-71.9059 120.5294,-74.0487 2.836,-0.7143 5.4357,0.9523 7.5626,5 19.8519,37.8576 20.7972,40.0006 18.4339,44.5244 -5.6719,10.7145 -14.8889,3.5716 -25.2875,-19.7621 -6.1446,-13.8098 -7.7989,-13.5717 -36.3951,4.0477 -2.127,1.4286 -8.9806,5.2381 -15.3616,9.0476 -6.3809,3.5715 -13.2346,7.3811 -15.1252,8.5717 -12.9983,8.0953 -44.6668,26.4289 -47.5028,27.6194 -1.8907,0.7143 -4.254,0.4762 -5.1993,-0.2381 z"
       id="path63"
       style="stroke-width:1" />
    <path
       d="m 1893.0536,7318.0166 c -1.6543,-2.381 6.381,-9.762 18.6702,-16.9049 10.3986,-6.1906 63.3371,-40.4769 84.6069,-55.0009 15.1253,-10.2381 19.8519,-11.4287 22.2152,-5.4763 1.418,3.8097 -4.2539,9.524 -16.3069,16.4289 -6.6173,3.8096 -58.1376,36.1911 -79.8802,50.0008 -19.6156,12.6191 -26.7056,15.2383 -29.3052,10.9524 z"
       id="path65"
       style="stroke-width:1" />
    <path
       d="m 1875.0924,7285.1591 c -4.4903,-2.381 -10.1623,-7.8573 -12.762,-12.1431 -4.4903,-7.8572 -4.4903,-8.0954 1.1817,-20.0003 8.0353,-17.3812 29.5415,-32.8576 45.1394,-32.8576 4.254,0.2381 12.0529,2.8573 17.2522,5.9524 23.6333,14.524 34.2683,14.286 47.5028,-0.9523 7.5627,-8.5715 7.3263,-18.0955 -1.1816,-26.6671 -8.2716,-8.0953 -20.3246,-9.2857 -31.1958,-2.8571 -5.1993,3.0953 -7.5626,3.3333 -9.4533,1.4285 -7.7991,-7.8571 11.8166,-19.7622 31.9048,-19.7622 11.8166,0 13.7073,0.7143 21.5062,8.8097 7.09,7.3811 8.2716,10.2383 8.2716,20.0003 0,14.0478 -5.1993,23.0955 -19.1429,33.81 -21.0335,15.9526 -34.9771,16.1907 -59.083,1.1905 -12.9983,-7.8573 -16.7796,-8.3335 -26.9419,-1.9048 -10.3986,6.4288 -14.8889,17.1431 -10.3986,25.4766 4.7267,8.8096 12.5256,11.6668 21.9789,8.3334 4.254,-1.6667 9.4533,-2.8572 11.8166,-2.8572 7.0899,0 3.3086,8.0954 -5.672,12.3811 -13.7072,6.4287 -21.7425,7.143 -30.7231,2.6192 z"
       id="path67"
       style="stroke-width:1" />
    <path
       d="m 718.71961,7282.7781 c -4.01764,-3.8096 -0.94533,-12.143 7.56262,-20.2384 8.03529,-7.3811 9.45328,-10.7145 10.87127,-21.9052 2.83599,-21.4288 0.94533,-22.6193 -14.65258,-10 -7.56262,5.9524 -18.43389,15.2383 -24.34219,20.4764 -11.34393,10.2382 -15.36157,11.6669 -17.25223,5.9525 -1.65432,-3.8096 4.72664,-10.7144 27.41451,-29.5243 17.48856,-14.524 19.14288,-16.9049 14.65258,-23.0955 -2.83599,-4.2858 -3.78131,-4.0476 -14.65258,3.8096 -6.14463,4.5238 -11.8166,8.8096 -12.52559,9.524 -4.96298,5.7143 -15.83424,11.9049 -21.50621,11.9049 -10.39861,0 -20.32455,-10.2383 -23.16053,-24.048 -4.96297,-23.0956 -2.36332,-42.6197 5.67197,-42.6197 2.83598,0 3.30864,3.8096 3.07231,18.5717 -0.23633,10.0002 0.47267,20.4766 1.41799,23.3336 3.07232,10.0003 17.48857,12.8575 25.52385,5.0002 1.65433,-1.6667 7.56262,-6.4287 13.23459,-10.7145 5.43563,-4.5239 9.92594,-9.0477 9.92594,-10.2382 0,-1.4286 -7.08996,-11.6669 -15.59791,-22.8575 -13.94358,-18.0954 -15.5979,-21.1907 -13.70725,-26.667 1.18166,-3.3334 3.30865,-6.1906 4.49031,-6.1906 2.59965,0.2382 42.53975,51.6673 46.55739,60.0009 4.4903,9.2858 8.98061,8.3334 32.6139,-7.6192 12.76192,-8.5715 23.86952,-15.4765 24.57852,-15.4765 0.70899,0 5.1993,-2.857 10.16227,-6.1905 4.96297,-3.3334 11.34393,-7.1429 14.41625,-8.3334 5.67196,-2.1429 6.38096,-5.0001 2.83598,-11.905 -3.54498,-6.1905 -5.1993,-5.9524 -23.63319,5.0001 -8.98062,5.2382 -16.77957,9.5239 -17.48856,9.5239 -0.709,0 -1.418,-6.4286 -1.418,-14.2858 0,-15.7146 -4.01764,-20.4766 -14.88891,-17.8574 -11.34393,2.8571 -16.30699,20.0002 -10.63493,36.191 3.54497,9.7619 0,15.2382 -6.14473,9.0477 -2.83598,-2.8572 -3.78131,-8.3335 -3.78131,-21.1908 0,-15.4764 0.709,-18.3335 7.08996,-27.1432 12.28935,-17.3812 31.66857,-15.7146 37.8132,3.0953 3.30865,9.762 8.27162,10.7144 17.48856,3.3333 l 6.38097,-5.0001 -7.56263,-13.5715 c -4.25397,-7.3811 -9.45327,-16.9051 -12.05292,-21.1909 -2.36332,-4.2857 -4.25398,-9.5239 -4.25398,-11.9048 0.23633,-4.524 6.38096,-13.8097 8.03529,-12.1431 1.18166,1.1905 8.74428,15.4764 30.72315,57.6199 7.08995,13.8097 10.63493,18.3336 14.41624,18.3336 5.67197,0 15.36158,-6.1906 15.36158,-10.0002 0,-1.4285 -5.67197,-14.524 -12.76192,-29.0481 -21.97887,-45.7148 -21.03355,-43.3339 -17.48857,-48.8101 1.65433,-2.8572 4.25398,-5.0001 5.67197,-5.0001 1.18166,0 6.61729,8.8097 11.58026,19.7622 4.96297,10.7144 12.99826,28.3337 17.96123,39.2862 5.1993,10.7145 10.39861,19.5242 11.81662,19.5242 1.41799,0 5.43563,-1.4286 8.74428,-3.0954 3.54507,-1.9047 10.63503,-5.238 15.83433,-7.8572 7.79895,-3.8095 9.21694,-5.7144 8.74428,-10.4763 -1.41799,-10.0002 -7.08996,-14.2859 -17.96123,-13.8097 -9.45337,0.7143 -9.6897,0.7143 -10.39869,-8.0954 -0.47267,-4.762 0.94532,-12.6192 2.83598,-17.3812 2.12699,-5 3.7814,-10.7144 3.7814,-13.0954 0,-10.0001 13.47092,-33.3339 19.14289,-33.3339 4.01764,0 2.12699,8.3336 -5.1993,22.8576 -8.50795,16.6668 -8.03529,21.1908 3.07231,25.9527 6.85363,2.8572 8.27162,2.6191 11.8166,-0.4762 2.12698,-1.9048 7.32629,-5.2381 11.58026,-7.3811 5.43564,-2.8572 8.50794,-6.4286 9.68964,-11.6667 2.836,-11.4289 15.8342,-20.7146 30.72306,-22.1433 l 12.5256,-1.1904 v -14.0479 c 0,-12.143 0.709,-14.0478 5.19926,-15.9526 4.4903,-1.6667 5.672,-0.9524 6.381,3.3334 3.0723,16.905 9.4533,44.7626 12.2892,53.8102 1.8907,5.9525 3.30866,12.8573 3.30866,15.9527 0,11.9049 2.836,11.9049 68.5363,-0.9524 8.7443,-1.6667 10.8713,-5.9525 8.2717,-16.4288 -1.418,-5.7145 -1.6544,-5.9525 -19.6156,-4.2858 -9.9259,0.9524 -21.7426,2.6191 -26.2329,4.0477 -6.1447,1.9048 -8.508,1.6666 -11.344,-1.1904 -3.3086,-3.3335 -2.8359,-5.0002 3.7813,-16.667 10.1623,-18.0954 17.4887,-19.5241 19.6157,-4.0477 0.709,5.7144 1.418,5.9525 13.7072,5.2382 7.09,-0.4762 13.7073,-1.6667 14.889,-2.6192 0.9453,-0.9523 0.7089,-11.6667 -0.4727,-24.0479 -2.5997,-24.0479 -0.9453,-30.9528 6.8536,-30.9528 2.5997,0 4.7267,0.2382 4.963,0.7143 0,0.2381 0.4726,7.381 1.1816,15.9527 1.8907,25.7146 7.799,67.3818 9.926,69.5247 1.1816,1.1905 6.1446,1.1905 11.3439,0 l 9.217,-1.9047 -0.709,-23.81 c -0.2364,-12.8573 -1.1817,-31.1909 -1.8907,-40.7148 -1.1816,-16.4288 -1.1816,-17.1431 4.963,-21.1909 3.3086,-2.1427 6.6173,-3.3333 7.3263,-2.619 0.709,0.4763 2.127,20.2384 3.0723,43.3341 1.418,31.667 2.836,42.6195 5.1993,44.2862 1.8906,1.1905 17.2522,1.9048 34.0318,1.6668 l 30.7232,-0.7144 0.709,-21.905 0.709,-22.1433 -7.7989,-4.7619 c -10.6351,-6.4287 -24.106,-6.4287 -28.8326,0.4762 -2.127,2.8572 -3.7813,6.4287 -3.7813,7.8573 0.2363,5.9524 7.7989,11.6668 19.3792,14.2859 9.9259,2.1428 12.5257,3.8095 12.5257,7.3811 0,3.5714 -1.8908,4.762 -10.6351,5.2381 -19.3792,1.1906 -35.4497,-12.6192 -31.9048,-27.6194 3.7813,-16.9051 18.6703,-25.2384 38.7585,-21.4289 12.053,2.1429 14.4163,0.4762 14.4163,-11.6668 0,-7.143 6.6173,-15.0003 12.5256,-15.0003 0.9453,0 1.6543,20.0003 1.1817,44.7626 l -0.709,44.5244 6.6173,0.7144 c 4.9629,0.7143 6.3809,2.1428 6.3809,6.4286 v 5.7144 l -34.2681,-1.4287 c -75.8627,-3.0952 -179.3761,11.905 -245.31258,35.7148 -4.254,1.4286 -10.8713,8.8097 -19.1429,21.667 -18.90658,28.3337 -30.72317,39.2863 -45.37575,40.953 -14.41634,1.6667 -24.57863,-4.762 -24.57863,-15.7146 0,-3.8095 -0.94533,-7.381 -2.12699,-8.0953 -5.1993,-3.3334 -96.42343,51.1912 -107.05836,64.0485 -3.30865,3.8096 -4.01774,9.524 -4.25407,28.8099 v 24.0481 l -10.63494,10.0001 c -10.63493,9.7621 -13.23458,11.1906 -16.07057,8.0954 z m 172.28618,-125.0018 c 3.78131,-1.6667 9.45328,-5.2382 12.28926,-7.8573 6.85363,-5.7144 21.74257,-24.7623 21.74257,-27.6194 0,-4.2857 -11.5803,-1.9048 -30.95951,6.4286 -29.06894,12.6193 -33.08659,17.3812 -22.92429,27.1432 5.90829,5.4764 10.39869,5.9526 19.85197,1.9049 z m 50.57503,-58.5723 c 11.10756,-3.8095 26.23276,-8.8097 33.79542,-10.9525 7.3263,-2.1429 13.4709,-5.2382 13.4709,-6.9049 0,-6.1906 -7.3263,-33.81 -9.6896,-36.6671 -6.85356,-8.0954 -33.08642,-6.4287 -36.86772,2.3809 -5.672,12.6192 6.1446,20.2384 26.70546,17.1432 9.21696,-1.1906 10.39856,-0.9524 10.39856,3.0952 0,7.3811 -5.43556,10.0002 -20.56086,10.7145 -10.16216,0.238 -16.30686,-0.7143 -22.45146,-4.0478 -8.5079,-4.5238 -8.7443,-4.5238 -18.19756,-0.238 -5.43563,2.381 -9.68961,5.9524 -9.68961,8.0953 0,5.9524 8.03529,24.048 10.63494,24.048 1.41799,0 11.58023,-3.0953 22.45153,-6.6668 z"
       id="path69"
       style="stroke-width:1" />
    <path
       d="m 465.37169,7274.2065 c -2.59965,-1.6667 -9.45327,-5.0001 -15.36166,-7.381 -5.9083,-2.381 -13.70726,-5.7144 -17.7249,-7.381 -11.1076,-5.0002 -60.26464,-25.0005 -70.89958,-29.0481 -5.1993,-1.9049 -11.81659,-4.524 -14.65258,-5.7143 -3.30864,-1.1906 -5.43563,-4.0478 -5.43563,-6.9049 0,-6.9049 8.50795,-6.1906 26.70551,2.3809 8.50795,4.0477 16.3069,7.143 17.48856,7.143 2.83598,0 19.61555,-25.4766 19.61555,-29.7624 0,-1.9047 -1.41799,-4.2857 -2.83598,-5.2381 -1.65433,-0.9525 -7.79896,-7.6192 -13.47092,-14.7622 -8.27162,-10 -9.92594,-13.5716 -8.03529,-16.6668 4.72664,-7.3811 4.25398,-7.6192 40.88542,36.9052 8.50795,10.2383 17.48857,21.4289 20.08822,24.5242 2.59965,3.0953 9.45337,10.9525 15.36167,17.6193 5.90829,6.4287 13.70725,15.0002 17.25223,19.0479 3.54498,4.2857 6.38096,9.5239 5.90829,12.3811 -0.94532,5.7144 -8.27161,7.3811 -14.88891,2.8572 z m -11.1076,-20.4765 c -1.41799,-3.8095 -35.44988,-40.7149 -37.8132,-40.7149 -1.18166,0 -2.59965,1.9049 -3.54498,4.2858 -0.70899,2.1429 -3.07231,5.9525 -4.96297,8.0954 -5.1993,6.4286 -1.89065,10.9525 12.99826,17.3812 7.56262,3.3333 16.3069,7.6192 19.61555,9.524 6.61729,3.8095 15.12533,4.7619 13.70734,1.4285 z"
       id="path71"
       style="stroke-width:1" />
    <path
       d="m 1634.0337,7239.9203 c -4.4904,-3.5715 -8.7444,-7.143 -9.4534,-7.8572 -4.2539,-4.524 -41.8307,-31.9053 -53.8836,-39.2864 -2.127,-1.4286 -9.926,-6.4286 -17.0159,-10.9524 -12.9983,-8.5716 -43.7214,-25.9529 -59.083,-33.3339 -39.2312,-19.0479 -46.5575,-21.905 -94.5329,-37.8577 -59.5556,-19.7621 -60.501,-20.0002 -67.3547,-15.0002 -3.0723,2.3811 -5.9083,5.4763 -6.1446,6.6668 0,1.4286 -4.254,5.9524 -9.2169,10.2383 -12.053,10.4763 -30.0142,13.0954 -37.5768,5.4763 -7.799,-7.8573 -8.7443,-16.1909 -2.836,-24.0481 6.381,-8.8096 6.381,-13.3335 0,-15.0001 -7.3263,-1.9048 -4.254,-7.3811 5.1993,-8.8097 6.381,-0.9524 8.2716,-2.381 8.7443,-7.143 0.4726,-3.3334 2.3633,-11.9048 4.254,-19.524 1.8906,-7.3811 2.5996,-15.0002 1.8906,-17.1432 -2.5996,-7.1429 -17.4886,-13.5716 -29.0688,-12.8573 -9.6896,0.7143 -10.8713,1.4286 -11.5803,6.6667 -0.4726,4.5239 0.9453,7.143 6.381,10.2384 3.7813,2.1428 8.9806,4.0476 11.5802,4.0476 2.836,0 5.4357,0.9524 6.381,2.1429 2.127,3.8095 -8.2716,8.0954 -15.3616,6.4287 -12.9982,-2.381 -25.2875,14.0478 -14.6526,19.7621 5.4357,2.8572 8.9807,0.7143 12.2893,-7.8573 3.3087,-8.8097 7.799,-5.2381 7.799,5.9525 0,14.7621 -20.5609,22.1432 -30.9595,10.9526 -7.5626,-7.8572 -6.6173,-18.3336 1.8906,-27.1432 6.1447,-6.4287 6.6173,-7.6192 3.545,-10.2383 -1.8906,-1.6667 -3.545,-5.9524 -3.545,-9.524 0,-16.6669 21.0336,-27.1432 42.0671,-20.7145 6.6173,1.9048 12.9983,2.6191 14.4163,1.9048 1.1816,-0.9524 3.7813,-5.7144 5.4356,-10.9526 1.8907,-5.7144 4.7266,-9.7621 7.5626,-10.2382 7.5626,-1.6667 8.7443,2.6191 5.1993,18.8097 -6.6173,30.2385 -11.3439,58.3342 -10.3986,64.0486 0.4727,4.0477 2.836,6.1905 8.508,7.6192 10.6349,2.8571 13.2346,0.238 16.7795,-16.4289 1.6544,-7.6191 4.0177,-17.8574 5.1993,-22.8574 1.4181,-5.2382 3.3088,-15.2383 4.4904,-22.3813 2.3634,-14.2859 7.5627,-22.1432 14.6526,-22.1432 5.1993,0 5.1993,-0.4762 0.709,20.2384 -2.127,9.2858 -5.1993,23.8099 -7.0899,32.6195 -1.8907,8.8096 -4.7267,18.8099 -5.9083,22.3813 -3.3087,8.8096 -0.9454,15.0002 6.6173,16.4288 11.8165,2.6192 34.7407,8.8097 43.7214,12.1431 4.7266,1.9047 10.8712,3.3334 13.4709,3.3334 4.7266,0 8.9806,-8.8097 5.4356,-11.667 -2.3633,-2.1428 -20.5609,-8.8096 -29.7778,-10.7143 -8.7443,-2.143 -18.1976,-12.3811 -18.1976,-19.7623 0,-8.0953 5.1993,-17.1431 15.8343,-27.1431 12.0529,-11.4288 25.2875,-19.2861 30.0141,-17.3813 6.381,2.381 4.254,6.6668 -5.9083,11.4288 -17.9612,8.3334 -30.7231,25.4765 -25.9965,34.5243 2.5997,4.7619 34.0318,15.7145 39.2311,13.5716 1.8907,-0.7143 4.4903,-3.8096 5.672,-6.6667 4.7266,-12.6194 7.7989,-22.6194 9.6896,-30.0005 2.5996,-10.2383 6.381,-14.7622 13.2346,-14.7622 6.3809,0 9.4533,3.8096 6.1446,7.8573 -1.1817,1.6667 -4.4903,9.762 -7.3263,18.3336 -3.0723,8.5715 -6.3809,17.6194 -7.5626,20.2384 -4.0176,9.2858 -9.6896,26.1909 -10.8713,32.3815 -0.9453,5.2381 0.2364,6.6667 6.8537,10 4.2539,1.9049 10.3986,4.2859 13.7072,5.2382 6.6173,1.6667 9.9259,-2.3809 15.3616,-18.0955 3.0723,-8.3335 2.836,-9.0478 -1.418,-10.4763 -9.4533,-3.0952 -2.3633,-13.5715 11.5803,-16.6669 9.2169,-1.9049 15.3616,2.1429 13.471,8.5715 -1.1817,3.3334 1.418,5.7144 12.2892,10.7145 7.5626,3.5715 14.4163,6.9048 15.3616,7.381 0.709,0.4762 4.4903,-5.4762 7.799,-12.8573 3.5449,-7.6192 8.0352,-15.7146 10.1622,-17.8573 4.0177,-4.7621 11.1076,-5.7145 13.4709,-1.9049 1.418,2.381 -26.4691,61.4294 -32.1411,68.3343 -5.672,6.6668 -1.1817,13.5717 14.1799,21.667 8.2716,4.2857 16.3069,7.3811 17.7249,6.9048 1.418,-0.7142 4.4903,-4.5237 6.8536,-8.5715 l 4.254,-7.6192 -7.3263,-6.9048 c -4.0176,-3.8096 -7.0899,-8.8096 -6.6173,-10.9525 0.9454,-4.7621 21.2699,-15.7145 42.3034,-22.3813 17.0159,-5.4762 26.9419,-5.4762 26.9419,0 0,2.1429 -6.1446,5.0001 -18.9066,8.3335 l -18.9065,5 0.4726,9.0478 c 0.709,10.9525 4.254,15.7145 11.1076,15.7145 2.836,0 7.3263,1.6667 10.1623,3.5714 4.4903,3.3334 6.1446,2.8573 19.3792,-3.5714 11.1076,-5.7144 17.2523,-7.1429 28.5963,-7.1429 17.9612,0 18.6702,5.2381 0.9453,7.381 -15.3616,2.1429 -27.6509,8.3334 -32.6139,16.6669 -5.1993,8.8097 -3.545,11.9048 15.3616,26.4288 l 15.1253,11.4289 5.9083,-6.9049 c 21.7426,-25.0004 25.9965,-31.191 25.9965,-38.0958 0,-5 1.1817,-7.381 3.545,-7.381 1.8907,0 3.545,1.4285 3.545,3.0952 0.2363,1.4286 2.5996,5.9525 5.9083,9.7621 4.7266,5.9524 6.1446,6.6667 9.2169,4.0477 5.1993,-4.2859 4.7267,-11.1907 -0.9453,-19.286 -4.0176,-5.7144 -6.8536,-6.9049 -20.0882,-8.3335 -9.4533,-0.9524 -17.0159,-3.0952 -19.3792,-5.4762 -3.7813,-3.8096 -3.545,-4.0477 1.1816,-4.762 2.5997,-0.4763 7.09,0.4761 9.6897,1.6667 2.5996,1.4286 8.0352,2.6191 12.2892,2.6191 8.508,0 21.5062,7.381 26.9419,15.0002 4.7266,6.6667 4.4903,19.2859 -0.2364,24.0479 -2.127,2.1429 -7.7989,3.8095 -13.4709,4.0476 -9.6896,0.2382 -10.3986,0.7143 -28.8325,24.0481 -27.6508,35.0005 -25.9965,31.667 -20.0882,37.6196 3.3086,3.3333 4.4903,6.6667 3.545,9.762 -1.8907,5.9524 -3.0723,5.7143 -12.9983,-1.9048 z m -2.5997,-27.8576 c 4.254,-5 1.1817,-9.0476 -13.471,-19.286 -16.0705,-10.9524 -20.7972,-16.6668 -22.4515,-26.9051 -0.709,-4.0476 -2.836,-9.2859 -4.963,-11.4286 -4.4903,-4.524 -16.3069,-8.0954 -19.6155,-5.9526 -4.4903,2.8572 -12.0529,17.6193 -10.8713,20.7147 0.709,1.9046 10.3986,9.5239 21.7426,16.9049 11.1076,7.3811 20.7972,14.286 21.5062,15.0002 2.3633,3.3334 19.6155,14.2859 22.4515,14.2859 1.6543,0 4.254,-1.4286 5.672,-3.3334 z m -129.0373,-89.287 c 3.545,-6.4286 6.381,-12.6191 6.381,-14.0478 0,-1.4286 -4.4903,-4.5238 -9.9259,-7.1429 -18.6704,-8.8096 -19.143,-8.8096 -25.0513,3.8096 -2.836,6.1906 -5.1993,12.8573 -5.1993,14.7621 0,3.5715 16.5433,13.3336 23.8696,13.8097 2.127,0.2382 6.1446,-4.2858 9.9259,-11.1907 z m -188.1204,-18.3335 c 10.1623,-7.143 12.053,-9.2859 10.1623,-12.8573 -1.1816,-2.1429 -6.1446,-4.762 -11.1076,-5.7143 -16.7796,-2.6192 -20.7972,-1.9049 -25.0512,5.4761 -5.1993,8.8097 -4.9629,11.1906 0.709,16.905 6.6173,6.6668 11.1076,5.9525 25.2875,-3.8095 z"
       id="path73"
       style="stroke-width:1" />
    <path
       d="m 448.11937,7192.5387 c -30.25049,-24.286 -54.82901,-45.2387 -54.82901,-46.4293 0,-3.5715 28.35983,-38.0958 32.61381,-39.5243 1.89065,-0.9524 5.1993,0.9524 7.56262,4.2858 4.96297,6.1905 4.25398,7.6191 -10.3986,23.5718 -4.72664,5 -8.50795,10.9524 -8.50795,12.8573 0,1.6666 12.99825,13.8097 28.59616,26.667 15.83433,13.0954 30.48691,25.2384 32.6139,27.3814 2.12699,1.9047 10.87127,9.2858 19.61555,16.1907 10.3986,8.0953 15.36157,13.5716 14.41625,15.7144 -0.709,1.9049 -2.59966,3.5716 -4.01765,3.5716 -1.65432,0 -27.4145,-20.0003 -57.66508,-44.2864 z"
       id="path75"
       style="stroke-width:1" />
    <path
       d="m 1813.6461,7207.0627 c -3.0723,-3.8096 -1.6544,-7.8573 9.6896,-27.3813 2.836,-4.5239 7.0899,-12.6193 9.6896,-17.8574 2.5996,-5.2383 5.9083,-11.4288 7.0899,-13.8097 1.8907,-3.8097 1.418,-4.2859 -3.3086,-2.8573 -3.0723,0.9524 -16.3069,6.9049 -29.5415,13.5717 -13.4709,6.4286 -26.2328,11.4286 -28.3599,10.9525 -8.2716,-1.4285 -4.0177,-7.6191 10.1623,-14.7621 22.2153,-11.4288 56.7197,-27.6194 59.083,-27.6194 1.1817,-0.2381 12.2893,-9.7621 24.5786,-21.667 21.0335,-20.0003 27.8871,-23.8099 30.0141,-17.1431 0.9453,2.8571 -3.3086,7.8573 -28.3598,31.429 -13.2346,12.143 -19.3792,22.3813 -50.5751,84.2869 -3.7813,7.3811 -5.9083,7.8572 -10.1622,2.8572 z"
       id="path77"
       style="stroke-width:1" />
    <path
       d="m 507.20244,7123.0139 c -47.73905,-46.6673 -50.10236,-49.5246 -46.79372,-54.0484 3.30865,-4.5239 5.67197,-2.6191 54.59268,46.4292 27.88717,28.0956 50.81136,52.3817 50.81136,54.0484 0,8.5715 -12.76192,-1.4286 -58.61032,-46.4292 z"
       id="path79"
       style="stroke-width:1" />
    <path
       d="m 551.39651,7125.3949 c -63.33695,-65.9534 -68.29992,-71.4297 -68.29992,-76.4297 0,-2.8573 1.41799,-5 3.30864,-5 1.89066,0 18.4339,16.4287 37.10412,36.429 18.67022,20.0003 34.26813,35.2386 34.74079,33.81 0.23633,-1.4285 -4.72664,-15.4763 -11.34393,-31.1909 -18.67022,-43.5721 -26.70551,-66.9057 -25.05119,-71.4296 3.30865,-8.3335 11.1076,-1.9048 40.88543,34.2862 17.0159,20.4765 33.08647,39.5244 35.44979,42.1434 17.48865,19.7622 23.86961,29.2862 21.26996,31.9053 -1.41799,1.4286 -3.30864,2.619 -4.25397,2.619 -0.94533,0 -15.59791,-16.6668 -32.85023,-36.9052 -29.06883,-34.0481 -35.44979,-40.4768 -35.44979,-34.7624 0,1.9048 9.68961,26.1909 17.72489,44.2863 1.89066,4.0477 4.72664,10.9526 6.6173,15.4764 1.89065,4.5239 6.38096,14.524 9.92594,22.1433 6.38096,14.0477 6.38096,20.7145 0.47266,20.7145 -1.65432,0 -15.36157,-12.6192 -30.25049,-28.0956 z"
       id="path81"
       style="stroke-width:1" />
    <path
       d="m 1745.8187,7141.5856 c -15.5979,-9.524 -15.5979,-31.9053 0.2363,-58.3342 15.1253,-25.7146 31.1959,-43.0959 50.8115,-56.1913 13.7073,-9.0477 35.9225,-10.0001 46.0847,-1.9047 7.799,6.1905 13.2346,18.8098 13.2346,31.1909 0,8.3334 -1.8906,11.1906 -18.1975,28.8099 -10.1623,10.7144 -19.1429,19.7622 -20.0883,20.2384 -0.9453,0.4762 -6.8536,-3.8096 -12.7619,-9.7621 -11.5802,-10.9525 -12.5256,-15.7145 -3.7813,-20.4765 3.7813,-1.9048 5.9083,-1.4285 10.8713,3.3334 8.0353,7.6192 10.8712,7.3812 18.6702,-0.4761 8.508,-9.286 10.8713,-16.9051 8.2716,-26.6671 -8.7443,-31.191 -46.7937,-18.3336 -76.808,25.9528 -18.4338,27.1432 -19.6155,45.4767 -3.3086,52.1435 6.1446,2.6191 8.508,2.3811 19.3792,-3.0952 13.2347,-6.1906 18.434,-5.2383 14.4164,2.619 -3.0724,5.4764 -26.233,17.3813 -34.0319,17.3813 -3.0723,0 -8.7443,-2.143 -12.9983,-4.762 z"
       id="path83"
       style="stroke-width:1" />
    <path
       d="m 1914.3235,7130.633 c -1.8907,-5.2381 -2.127,-4.7619 4.9629,-11.6667 3.545,-3.3335 8.7444,-5.9526 11.3441,-5.9526 2.5996,0 6.8536,-3.0952 9.4532,-7.1429 4.7267,-6.9048 10.635,-9.5239 10.635,-4.5239 0,1.4286 -1.6543,4.0477 -3.545,5.9524 -1.8907,1.9049 -4.254,5.0001 -5.1993,6.4288 -2.127,3.3333 -22.9243,20.7146 -24.8149,20.7146 -0.709,0 -2.127,-1.6667 -2.836,-3.8097 z"
       id="path85"
       style="stroke-width:1" />
    <path
       d="m 625.60483,7091.823 c -5.43563,-3.8097 -12.28926,-10.7145 -15.5979,-15.0003 -11.58027,-15.4764 -12.05303,-26.667 -1.89066,-47.8578 4.01764,-8.8097 7.32629,-17.8574 7.32629,-20.2383 0,-4.2858 -4.96297,-12.6193 -11.8166,-19.7622 -9.21703,-9.762 -25.76027,-6.4287 -31.9049,6.4287 -3.54498,7.6191 -3.54498,8.8096 1.18166,19.0478 3.54498,8.5716 4.01764,11.9049 2.12699,14.524 -4.25398,5 -12.28926,-3.8095 -17.48856,-19.286 -4.96298,-14.524 -3.78132,-21.667 4.96297,-32.1432 6.61729,-8.0954 17.48856,-11.1907 29.54149,-8.5717 10.63503,2.3811 30.95957,23.5718 34.74088,36.1911 4.01764,14.0478 3.54498,18.3336 -4.25397,35.2385 -3.78131,8.3335 -7.08996,17.8574 -7.08996,21.1909 0,8.8095 12.99826,22.8574 21.50621,22.8574 13.47091,0 20.7972,-16.4288 12.52559,-28.3337 -2.59965,-3.8097 -3.07232,-6.1906 -1.41799,-7.8573 4.25397,-4.2857 9.45327,-0.2381 14.41624,11.4287 6.85363,15.2383 6.38097,22.8576 -1.89065,31.6671 -9.21695,10.0002 -21.74254,10.2383 -34.97713,0.4763 z"
       id="path87"
       style="stroke-width:1" />
    <path
       d="m 1687.2084,7092.0611 c -7.5626,-1.4286 -15.1252,-10.0002 -16.7796,-18.5718 -4.7266,-26.1908 25.9965,-81.1915 57.4287,-102.1442 10.1623,-6.9049 14.1799,-8.3335 24.8148,-8.3335 19.1429,0 27.8873,9.5239 27.8873,30.0005 0,15.2382 -6.3811,30.4766 -21.7426,51.4292 -24.1059,32.8577 -51.9931,51.4293 -71.6086,47.6198 z m 31.6685,-22.1432 c 5.6719,-4.0477 13.4709,-11.1907 17.4885,-15.9527 4.254,-4.5237 9.217,-10.2382 11.344,-12.143 2.127,-2.1428 4.4903,-5.4762 5.1993,-7.381 0.9453,-1.9048 4.2539,-7.8573 7.5626,-13.0954 7.5626,-12.6192 8.0353,-31.191 1.1817,-38.8101 -11.1076,-11.9049 -32.1412,-3.8096 -49.8661,18.8098 -19.1429,24.286 -28.1235,42.6197 -28.1235,57.6198 0,19.5241 16.5433,24.5242 35.2135,10.9526 z"
       id="path89"
       style="stroke-width:1" />
    <path
       d="m 680.9065,7065.8702 c -5.67196,-6.1906 -4.96297,-8.0953 4.25398,-14.2859 4.4903,-2.8572 8.27162,-6.4287 8.27162,-7.8573 0,-1.4285 -7.08996,-13.5715 -15.83424,-26.667 -8.98062,-13.3336 -16.54324,-25.2385 -17.25223,-26.6671 -0.709,-1.1905 -8.27162,-13.3335 -17.0159,-26.6671 -8.98062,-13.5715 -16.07057,-25.4764 -16.07057,-26.667 0,-1.1904 1.89065,-2.8572 4.01764,-3.5714 2.59965,-1.1905 5.67197,0.4762 9.21694,5.0001 3.07232,3.5714 5.43564,7.381 5.67197,8.3334 0,0.9524 4.49031,8.5715 10.16227,16.9049 5.67197,8.0954 11.1076,16.429 12.05293,18.3337 4.01764,8.3334 28.35983,46.1911 33.79547,52.6198 3.07231,3.5715 4.01764,3.5715 12.28926,-0.9524 7.79895,-4.2857 9.68961,-4.5239 12.99825,-1.9048 7.56263,6.4287 3.30865,12.6192 -17.48856,25.4766 -11.1076,6.9049 -21.26987,12.6192 -22.68786,12.6192 -1.418,0.2381 -4.25398,-1.6667 -6.38097,-4.0477 z"
       id="path91"
       style="stroke-width:1" />
    <path
       d="m 1610.4004,7038.2508 c 0,-1.9048 12.762,-25.0004 28.36,-51.1912 15.5979,-26.429 28.3598,-48.3341 28.3598,-49.0484 0,-2.3809 14.6526,-22.6193 16.5432,-22.6193 2.5997,0 23.3969,11.1906 28.3598,15.4764 1.8907,1.4286 5.4357,3.5714 7.799,4.2857 5.1993,1.9048 4.7266,13.0954 -0.9453,16.667 -2.836,1.6667 -7.3263,0 -18.4339,-7.6192 -11.5803,-7.6191 -15.5979,-9.2858 -18.1976,-7.143 -1.6543,1.4287 -8.0353,10.7145 -13.9436,20.7146 -15.5979,26.429 -15.8342,26.9051 -22.9242,38.0958 -3.7813,5.7144 -6.6172,10.7144 -6.6172,11.6669 0,0.7142 -3.0724,5.9524 -7.0901,11.9048 -3.7813,5.7145 -7.09,11.4288 -7.09,12.3812 0,2.8572 -8.2716,9.7621 -11.3439,9.7621 -1.6543,0 -2.836,-1.4287 -2.836,-3.3334 z"
       id="path93"
       style="stroke-width:1" />
    <path
       d="m 738.80783,7029.203 c -1.65433,-3.0952 -3.78131,-7.1429 -4.96297,-9.0478 -1.418,-1.9047 -10.39861,-17.3811 -20.32455,-34.5242 -9.68961,-16.905 -18.90655,-32.6195 -20.08821,-34.5243 -1.418,-1.9049 -3.30865,-5.9525 -4.72664,-8.8097 -1.18166,-2.8572 -4.72664,-9.2858 -7.79896,-14.2859 -8.27161,-13.3335 -9.92594,-19.5241 -5.1993,-21.1908 4.25398,-1.6666 7.79895,2.381 16.54324,19.0479 2.83598,5.2382 7.56262,13.5716 10.3986,18.0955 2.59965,4.5239 5.67197,10.0002 6.61729,11.905 1.65433,3.5714 19.85189,35.9528 24.34219,42.8577 5.67197,9.0478 16.54333,30.9528 16.54333,33.3338 0,4.5239 -8.74437,2.381 -11.34402,-2.8572 z"
       id="path95"
       style="stroke-width:1" />
    <path
       d="m 758.6598,7020.3934 c -4.96297,-5.7144 -2.83598,-11.1906 5.9083,-14.2859 9.68961,-3.3334 10.3986,-7.8573 3.78131,-19.7623 -3.30865,-5.7143 -13.23459,-24.7622 -21.97887,-42.3815 -8.98071,-17.6192 -19.14298,-37.3815 -22.68796,-43.5721 -8.03528,-13.8097 -8.27161,-15.9525 -0.94533,-15.9525 4.96298,0 8.74429,6.1906 32.37757,53.8103 14.65258,29.5242 27.65084,54.2864 28.8325,55.0007 1.18166,0.7144 6.38096,0 11.34393,-1.6667 9.92594,-3.3333 12.28926,-2.381 14.88891,6.1906 1.41799,4.5239 -0.94533,6.4287 -21.03354,16.1908 -12.52559,5.9524 -23.63319,10.9524 -24.57852,10.9524 -0.94533,0 -3.54498,-1.9047 -5.9083,-4.5238 z"
       id="path97"
       style="stroke-width:1" />
    <path
       d="m 1565.4974,7020.8696 c -8.7443,-3.5715 -11.5803,-11.1907 -11.8166,-30.0005 0,-35.9528 21.0335,-80.0011 47.9753,-99.5251 7.5627,-5.4764 11.8166,-6.9049 21.9789,-6.9049 10.8714,0 12.9984,0.9523 18.434,7.143 16.3069,19.7621 11.3439,47.3816 -16.7797,90.9536 -19.6155,30.0004 -42.776,45.0006 -59.7919,38.3339 z m 29.0688,-19.5241 c 18.1975,-11.905 44.1942,-59.2866 44.1942,-79.7631 0,-10.9524 -9.9261,-22.8574 -18.6704,-22.8574 -13.9435,0 -34.9771,22.3813 -46.321,49.0483 -6.6173,15.4764 -11.1076,35.0004 -9.6896,42.3815 3.0723,15.2383 16.7795,20.2384 30.4868,11.1907 z"
       id="path99"
       style="stroke-width:1" />
    <path
       d="m 1518.231,6992.5358 c 0,-3.5714 2.836,-12.381 6.1446,-19.7621 3.3087,-7.3811 7.5626,-16.4289 9.217,-20.4765 1.8906,-3.8096 7.0899,-15.4765 11.5802,-25.7147 14.6526,-32.1433 11.3439,-31.1909 -21.0335,5.2382 -13.7073,15.4764 -27.6509,31.6671 -30.7232,35.9529 -8.2716,11.1906 -14.18,15.0001 -17.4886,11.1906 -2.836,-3.5715 -1.6544,-8.3334 6.8536,-30.2385 2.8361,-7.143 5.6721,-15.2383 6.6174,-17.8574 0.709,-2.6192 2.5996,-7.381 4.4903,-10.7145 1.6543,-3.3333 3.0723,-7.6191 3.0723,-9.5238 0,-2.143 0.9453,-4.762 1.8907,-5.9525 1.1816,-1.4287 6.1446,-13.5717 10.8712,-27.3814 11.1076,-31.4291 11.5803,-31.9052 17.7249,-32.8576 5.9083,-0.9525 6.381,3.0952 1.6543,14.2858 -1.8906,4.286 -4.9629,11.667 -7.0899,16.667 -2.127,4.762 -3.7813,10.0001 -3.7813,11.905 0,1.9047 -0.9454,4.2858 -1.8907,5.7143 -0.9453,1.1905 -4.254,8.5715 -7.3263,16.4288 -2.836,7.8573 -6.8536,17.8573 -8.9806,22.1433 -7.7989,15.4764 1.1817,11.1905 15.3616,-7.6193 2.836,-4.0477 16.5432,-19.2859 30.2505,-34.048 18.4339,-20.0003 26.4692,-26.9051 30.7231,-26.9051 7.3263,0 7.3263,4.2857 -0.4726,21.1907 -3.3087,7.3811 -8.0353,17.6193 -10.3986,22.8574 -33.3228,74.5249 -40.6491,89.7631 -44.1941,91.1918 -1.8907,0.4762 -3.0723,-1.4287 -3.0723,-5.7144 z"
       id="path101"
       style="stroke-width:1" />
    <path
       d="m 820.34243,6992.0596 c -2.36332,-2.3809 -4.01764,-5.7144 -4.01764,-7.1429 0,-1.4286 -2.12699,-6.6668 -4.49031,-11.6669 -2.59965,-5 -7.32629,-15.4764 -10.87126,-23.3337 -3.54498,-7.8572 -8.74429,-19.524 -11.8166,-26.1907 -7.79895,-16.9051 -15.36158,-40.4768 -15.36158,-47.6198 0,-15.4764 12.5256,-27.3813 29.06883,-27.3813 8.74428,0 11.58027,1.4286 18.90655,8.5715 10.16228,10.2382 18.4339,26.9052 33.55914,67.62 1.89065,5.2382 5.1993,13.8097 7.08996,19.0479 1.89065,5.2381 5.19932,13.8097 7.3263,18.8098 4.01765,9.524 3.07232,18.0956 -1.65432,16.4289 -2.836,-0.9525 -7.32631,-8.8097 -12.28928,-22.1433 -2.12698,-5.2381 -6.14463,-15.9526 -8.98061,-23.8097 -3.07232,-7.8573 -6.38096,-15.2384 -7.32629,-16.667 -0.94533,-1.1905 -1.89066,-3.5715 -1.89066,-5.4763 0,-5.2381 -14.17991,-34.5243 -19.37921,-40.2386 -6.6173,-7.143 -18.19756,-7.143 -25.28752,-0.4762 -8.27162,7.8572 -5.67197,22.3812 10.63494,59.0484 3.30864,7.381 7.32629,16.6669 8.98061,20.4764 1.65432,4.0478 6.38096,14.286 10.63494,23.0957 4.01764,8.8097 7.32629,17.6192 7.32629,19.7621 0,5.0001 -5.43564,4.5239 -10.16228,-0.7143 z"
       id="path103"
       style="stroke-width:1" />
    <path
       d="m 882.49784,6968.964 c -4.96306,-5.9524 -1.65432,-11.6668 7.79895,-13.8097 7.79896,-1.9047 10.16228,-5 8.98062,-11.1906 -0.23633,-1.6667 -18.67022,-57.1437 -21.74263,-65.4771 -1.41799,-3.8096 -3.54498,-10.2382 -4.49031,-14.2859 -1.18166,-3.8096 -4.25397,-13.0955 -6.61731,-20.2384 -4.96297,-14.286 -4.72664,-16.6669 1.65434,-16.6669 4.72664,0 6.14463,3.5715 19.14298,45.2387 4.01764,13.8098 8.98061,28.8099 10.63494,33.3339 1.65432,4.5238 4.96297,15.2383 7.32629,23.5717 2.59965,8.3334 5.90829,15.7145 7.56262,16.4288 1.89065,0.4763 6.85362,0 11.1076,-1.1905 9.21699,-2.8572 12.99829,-0.4762 12.99829,8.0954 0,6.1905 -2.127,7.3811 -28.35987,14.7621 -21.03354,5.9524 -22.2152,5.9524 -25.99651,1.4285 z"
       id="path105"
       style="stroke-width:1" />
    <path
       d="m 1448.513,6967.7736 c -0.9454,-1.4286 -0.2364,-4.0478 1.1816,-5.9525 1.6543,-1.9047 3.7813,-6.9048 4.7267,-11.1906 2.3633,-9.2859 6.8536,-22.8575 9.6896,-28.5719 3.0723,-6.1905 3.0723,-6.4286 -8.7443,-11.4286 -12.2893,-5.4763 -26.7055,-6.1906 -27.8872,-1.6667 -9.9259,35.7147 -15.3616,49.2864 -19.6155,49.2864 -4.0177,0 -4.0177,-7.3812 0.709,-22.3813 2.127,-6.6668 5.1993,-16.905 6.8536,-22.8575 1.6543,-5.9525 4.7266,-16.905 6.8536,-24.2861 2.127,-7.6191 5.4357,-19.5241 7.3263,-26.1908 13.2346,-46.9054 13.2346,-46.9054 19.8519,-42.6197 3.545,2.3811 3.3086,4.5239 -4.4903,28.81 -10.1623,31.6671 -10.635,33.81 -5.9083,37.1433 4.4903,3.3334 28.1235,9.0478 32.1411,7.6191 1.418,-0.4761 6.6173,-12.8573 11.5803,-27.3813 10.3987,-31.1908 10.635,-31.6671 16.7797,-31.6671 5.1993,0 5.9083,5.0001 1.6543,12.6193 -1.418,2.8572 -3.545,8.3334 -4.4903,12.3811 -0.9454,3.8096 -4.0177,13.0954 -6.8537,20.2383 -9.4533,24.7624 -12.053,32.1434 -14.18,39.2864 -3.5449,11.9049 -15.3615,45.0006 -17.2522,48.334 -2.3633,3.5714 -7.7989,3.8096 -9.9259,0.4762 z"
       id="path107"
       style="stroke-width:1" />
    <path
       d="m 949.14342,6952.7734 c -1.418,-1.4286 -3.3086,-6.1906 -4.0176,-10.0002 -1.6543,-6.6668 -11.1076,-42.1435 -18.6702,-69.0486 -14.17996,-51.6673 -15.59795,-56.6674 -14.41629,-58.3341 0.709,-1.4286 18.67019,-5.9526 47.03005,-11.905 5.1993,-1.1905 10.1622,-1.6667 11.3439,-0.9524 3.0723,1.9048 2.127,15.2384 -0.9453,16.1908 -1.6544,0.4761 -11.5803,2.8571 -21.97886,5.4762 l -18.9066,4.5239 0.709,10.0002 c 0.4727,5.7143 2.5997,15.7144 4.963,22.6193 4.254,12.3811 4.254,12.3811 13.4709,11.4287 5.19926,-0.2381 14.65256,-0.9524 21.03356,-1.1905 11.10756,-0.2381 11.81656,0.2381 12.52556,6.1907 0.709,5.7143 -0.2364,6.6667 -12.05296,10 -7.0899,2.143 -15.3615,3.8097 -17.9612,3.8097 -7.32626,0 -8.50786,6.1906 -4.25396,20.0003 2.127,6.6667 4.25396,14.2858 4.49026,16.9049 0.9454,6.1905 13.9436,7.3811 28.12346,2.6191 9.217,-3.3334 10.635,-3.3334 14.6526,0.2381 7.08996,6.6667 4.254,13.5716 -6.6173,15.7146 -5.1993,1.1903 -14.88886,3.5714 -21.50616,5.4761 -14.4162,4.0478 -13.9436,4.0478 -17.01586,0.2382 z"
       id="path109"
       style="stroke-width:1" />
    <path
       d="m 1357.5252,6948.4876 c -3.3087,-1.1905 -8.508,-6.6668 -11.8166,-12.3812 -5.1993,-9.0477 -5.672,-12.6191 -5.4357,-36.191 0.2364,-48.334 17.4886,-89.0488 40.8855,-96.1918 19.6155,-5.9524 34.7408,9.2859 37.3404,37.1434 0.9453,10.4763 0.4727,12.6193 -4.0176,14.7621 -7.5627,4.2858 -9.6896,1.4286 -9.6896,-12.6191 0,-10.2384 -0.9454,-13.5717 -5.9083,-18.0957 -6.8537,-6.4286 -18.4339,-6.9048 -25.0512,-0.9523 -11.5803,10.7144 -23.1606,47.6197 -24.1059,77.144 -0.4726,17.8574 4.963,30.2385 14.6526,32.6194 7.3263,1.9049 11.8166,-0.9523 18.9066,-11.9049 6.1446,-9.2858 14.4162,-11.9049 14.4162,-4.5238 0,4.7619 -10.3986,20.2384 -17.9612,27.1432 -5.9083,5.2382 -14.8889,6.9049 -22.2152,4.0477 z"
       id="path111"
       style="stroke-width:1" />
    <path
       d="m 1299.6238,6936.8207 c -3.7814,-0.9523 -12.053,-1.9047 -18.1976,-2.1429 -6.1446,0 -11.5803,-1.1904 -12.2893,-2.3809 -2.1269,-3.0953 4.0177,-68.5724 10.8713,-118.0969 2.836,-22.1432 5.4356,-28.3338 10.6349,-26.429 2.127,0.9524 13.2346,2.6191 24.8149,3.8096 21.979,2.1429 27.8873,4.7619 27.8873,11.9049 0,8.5715 -5.1993,9.524 -25.7603,5.7144 -10.635,-2.1429 -20.7972,-3.0953 -22.4515,-2.619 -3.0724,1.1904 -9.926,42.6195 -7.5627,46.4291 0.709,1.1906 8.0353,3.0954 16.0706,3.8097 19.1429,2.3809 23.6332,4.7619 22.6879,12.8573 -0.709,5.7143 -1.6544,6.4286 -10.1623,6.1905 -5.1993,0 -14.1799,-0.4762 -20.0882,-1.1905 l -10.3986,-0.9524 -2.836,11.9049 c -3.545,15.0002 -4.0177,29.0481 -0.9453,30.9529 1.1816,0.7143 7.7989,1.9048 14.6525,2.6191 20.0883,1.9048 23.1606,3.0952 23.1606,7.8572 0,11.905 -4.0177,13.8097 -20.0882,9.762 z"
       id="path113"
       style="stroke-width:1" />
    <path
       d="m 1062.8191,6935.154 c -18.4339,-3.3333 -38.2859,-51.9054 -38.5222,-94.0489 0,-39.5244 20.0883,-64.5247 43.0125,-52.8579 21.7425,11.1907 32.6138,38.8101 32.6138,83.5726 0,45.4769 -12.9983,67.62 -37.1041,63.3342 z m 14.1799,-19.7621 c 11.5803,-9.2859 16.3069,-38.0958 10.8713,-67.62 -5.1993,-28.81 -13.471,-41.6673 -27.8872,-43.5721 -8.0353,-1.1905 -10.1623,-0.4762 -15.3616,5.2381 -7.799,8.3336 -9.4534,18.0956 -7.799,45.0007 1.6543,29.7624 10.635,54.2865 22.6879,61.6675 8.0353,5.0002 10.1623,5.0002 17.4886,-0.7142 z"
       id="path115"
       style="stroke-width:1" />
    <path
       d="m 1222.8159,6930.3921 c -19.1429,-0.9524 -23.6332,-3.0954 -23.6332,-11.6668 0,-5.2383 0.9453,-5.7144 10.3986,-5.7144 5.672,0 11.3439,-1.4285 12.9982,-3.0953 1.418,-1.9048 3.545,-23.8099 4.963,-53.0959 1.1817,-27.3814 3.0723,-54.5247 3.7813,-60.4772 1.6544,-10.4763 4.7267,-15.2383 8.508,-12.8573 3.0723,1.9048 2.127,36.4291 -1.8907,77.3821 -4.7266,49.5245 -4.7266,50.7151 7.3263,52.1436 8.9806,1.1905 9.4533,1.6667 9.4533,9.5239 0,9.524 0.2363,9.524 -31.9048,7.8573 z"
       id="path117"
       style="stroke-width:1" />
    <path
       d="m 1122.1384,6927.773 c -4.0177,-2.619 -5.4356,-14.524 -8.0353,-67.1438 -1.418,-26.9052 -3.0723,-55.0008 -3.7813,-62.3819 -1.418,-13.5715 -1.418,-13.8097 4.254,-13.8097 5.9083,0 5.9083,0 7.3263,30.0005 0.9453,16.4288 2.1269,30.9528 2.8359,32.1432 0.9454,1.1906 8.9807,2.143 17.9613,2.143 12.9982,0 16.7795,0.7143 17.9612,3.8096 2.836,7.381 -2.836,11.6668 -17.0159,13.3334 -7.799,0.9524 -14.8889,2.8573 -16.0706,4.0478 -1.418,1.4285 -1.6543,9.7619 -0.2363,22.1431 l 2.127,19.7622 h 15.3616 c 21.0335,0.2381 21.2698,0.4763 21.2698,7.143 0,3.3333 -1.418,6.4287 -2.836,7.143 -6.6173,1.9047 -38.7584,3.3333 -41.1217,1.6666 z"
       id="path119"
       style="stroke-width:1" />
  </g>
</svg>
